<?xml version="1.0" encoding="utf-8"?>
<!-- Generator: Adobe Illustrator 22.1.0, SVG Export Plug-In . SVG Version: 6.00 Build 0)  -->
<svg version="1.1" id="Layer_1" xmlns="http://www.w3.org/2000/svg" xmlns:xlink="http://www.w3.org/1999/xlink" x="0px" y="0px"
	 viewBox="0 0 62 61" style="enable-background:new 0 0 62 61;" xml:space="preserve">
<style type="text/css">
	.st0{fill:#FDB813;}
</style>
<g id="Layer_2_1_">
	<g>
		<circle class="st0" cx="30.91145" cy="32.1239" r="20.5"/>
		<path class="st0" d="M30.06428,1.78353l-1.38177,2.3933c-0.37872,0.65596,0.09468,1.4759,0.85211,1.4759h2.76354
			c0.75743,0,1.23083-0.81995,0.85211-1.4759l-1.38177-2.3933C31.38979,1.12758,30.443,1.12758,30.06428,1.78353z"/>
		<path class="st0" d="M54.1055,12.54046l-2.73268,0.41189c-0.74897,0.11289-1.09488,0.99423-0.62262,1.58642l1.72304,2.16063
			c0.47225,0.59219,1.40847,0.45107,1.68519-0.254l1.00964-2.57251C55.44479,13.1678,54.85447,12.42757,54.1055,12.54046z"/>
		<path class="st0" d="M60.68485,38.04348l-2.02582-1.87969c-0.55524-0.51519-1.45997-0.23611-1.62851,0.50233l-0.61494,2.69426
			c-0.16854,0.73845,0.5255,1.38243,1.24928,1.15917l2.64077-0.81457C61.0294,39.48172,61.24009,38.55867,60.68485,38.04348z"/>
		<path class="st0" d="M44.84794,59.08829l0.20652-2.75582c0.0566-0.75532-0.72567-1.28866-1.4081-0.96003l-2.48987,1.19906
			c-0.68242,0.32864-0.75318,1.27278-0.12736,1.69946l2.28335,1.55676C43.93831,60.25441,44.79134,59.84361,44.84794,59.08829z"/>
		<path class="st0" d="M18.5203,59.82773l2.28335-1.55676c0.62582-0.42668,0.55507-1.37082-0.12736-1.69946l-2.48987-1.19906
			c-0.68242-0.32864-1.4647,0.20471-1.4081,0.96003l0.20652,2.75582C17.04145,59.84361,17.89448,60.25441,18.5203,59.82773z"/>
		<path class="st0" d="M1.52716,39.70498l2.64077,0.81457c0.72378,0.22326,1.41783-0.42072,1.24929-1.15917l-0.61495-2.69426
			C4.63373,35.92767,3.729,35.6486,3.17376,36.16379l-2.02582,1.87969C0.5927,38.55867,0.80338,39.48172,1.52716,39.70498z"/>
		<path class="st0" d="M6.66472,13.87288l1.00964,2.57251c0.27672,0.70508,1.21294,0.84619,1.68519,0.254l1.72304-2.16063
			c0.47225-0.59219,0.12635-1.47353-0.62262-1.58642l-2.73268-0.41189C6.97831,12.42757,6.388,13.1678,6.66472,13.87288z"/>
		<path class="st0" d="M30.06428,1.78353l-1.38177,2.3933c-0.37872,0.65596,0.09468,1.4759,0.85211,1.4759h2.76354
			c0.75743,0,1.23083-0.81995,0.85211-1.4759l-1.38177-2.3933C31.38979,1.12758,30.443,1.12758,30.06428,1.78353z"/>
	</g>
</g>
</svg>
