<?xml version="1.0" encoding="utf-8"?>
<!-- Generator: Adobe Illustrator 22.1.0, SVG Export Plug-In . SVG Version: 6.00 Build 0)  -->
<svg version="1.1" id="Layer_1" xmlns="http://www.w3.org/2000/svg" xmlns:xlink="http://www.w3.org/1999/xlink" x="0px" y="0px"
	 viewBox="0 0 92.11996 72.54453" style="enable-background:new 0 0 92.11996 72.54453;" xml:space="preserve">
<style type="text/css">
	.st0{fill:#FFF8B3;}
	.st1{fill:#FFC655;}
	.st2{fill:#272A33;}
</style>
<g id="Layer_2_1_">
	<g>
		<path class="st0" d="M2.00077,12.3386l0.94676-1.73108c0.11147-0.20382,0.4042-0.20382,0.51567,0l0.94676,1.73108
			c0.02697,0.04931,0.06751,0.08985,0.11682,0.11682l1.73108,0.94676c0.20382,0.11147,0.20382,0.4042,0,0.51567l-1.73108,0.94676
			c-0.04931,0.02697-0.08985,0.06751-0.11682,0.11682L3.4632,16.71252c-0.11147,0.20382-0.4042,0.20382-0.51567,0l-0.94676-1.73108
			c-0.02697-0.04931-0.06751-0.08985-0.11682-0.11682l-1.73108-0.94676c-0.20382-0.11147-0.20382-0.4042,0-0.51567l1.73108-0.94676
			C1.93326,12.42845,1.9738,12.38791,2.00077,12.3386z"/>
		<path class="st0" d="M40.23949,1.43011l0.71869-1.31407c0.08462-0.15472,0.30683-0.15472,0.39145,0l0.71869,1.31407
			c0.02047,0.03743,0.05125,0.06821,0.08868,0.08868l1.31407,0.71869c0.15472,0.08462,0.15472,0.30683,0,0.39145L42.157,3.34762
			c-0.03743,0.02047-0.06821,0.05125-0.08868,0.08868l-0.71869,1.31407c-0.08462,0.15472-0.30683,0.15472-0.39145,0L40.23949,3.4363
			c-0.02047-0.03743-0.05125-0.06821-0.08868-0.08868l-1.31407-0.71869c-0.15472-0.08462-0.15472-0.30683,0-0.39145l1.31407-0.71869
			C40.18824,1.49832,40.21902,1.46754,40.23949,1.43011z"/>
		<path class="st0" d="M78.43511,15.05364l0.71869-1.31407c0.08463-0.15472,0.30683-0.15472,0.39145,0l0.71869,1.31407
			c0.02048,0.03743,0.05125,0.06821,0.08868,0.08868l1.31407,0.71869c0.15472,0.08462,0.15472,0.30683,0,0.39145l-1.31407,0.71869
			c-0.03743,0.02047-0.06821,0.05125-0.08868,0.08868l-0.71869,1.31407c-0.08462,0.15472-0.30682,0.15472-0.39145,0
			l-0.71869-1.31407c-0.02047-0.03743-0.05125-0.06821-0.08868-0.08868l-1.31407-0.71869
			c-0.15472-0.08462-0.15472-0.30683,0-0.39145l1.31407-0.71869C78.38387,15.12185,78.41464,15.09107,78.43511,15.05364z"/>
		<path class="st0" d="M4.27691,52.68399l0.54556-0.99752c0.06423-0.11745,0.23292-0.11745,0.29715,0l0.54556,0.99752
			c0.01554,0.02841,0.0389,0.05177,0.06732,0.06731l0.99752,0.54556c0.11745,0.06424,0.11745,0.23292,0,0.29715L5.7325,54.13957
			c-0.02841,0.01554-0.05178,0.03891-0.06732,0.06732l-0.54556,0.99752c-0.06423,0.11745-0.23292,0.11745-0.29715,0
			l-0.54556-0.99752c-0.01554-0.02841-0.0389-0.05178-0.06732-0.06732l-0.99751-0.54556c-0.11745-0.06423-0.11745-0.23291,0-0.29715
			L4.2096,52.7513C4.23801,52.73576,4.26137,52.7124,4.27691,52.68399z"/>
		<path class="st0" d="M34.22829,70.56441l0.41413-0.75722c0.04876-0.08916,0.17681-0.08916,0.22557,0l0.41413,0.75722
			c0.0118,0.02157,0.02953,0.0393,0.0511,0.0511l0.75722,0.41413c0.08916,0.04876,0.08916,0.17681,0,0.22557l-0.75722,0.41413
			c-0.02157,0.0118-0.0393,0.02953-0.0511,0.0511l-0.41413,0.75722c-0.04876,0.08916-0.17681,0.08916-0.22557,0l-0.41413-0.75722
			c-0.0118-0.02157-0.02953-0.0393-0.0511-0.0511l-0.75722-0.41413c-0.08916-0.04876-0.08916-0.17681,0-0.22557l0.75722-0.41413
			C34.19876,70.60371,34.21649,70.58598,34.22829,70.56441z"/>
		<path class="st0" d="M57.77322,62.01633l0.31437-0.57481c0.03701-0.06768,0.13422-0.06768,0.17123,0l0.31437,0.57481
			c0.00895,0.01637,0.02242,0.02983,0.03879,0.03879l0.57481,0.31437c0.06768,0.03701,0.06768,0.13422,0,0.17123l-0.57481,0.31437
			c-0.01637,0.00896-0.02983,0.02242-0.03879,0.03879l-0.31437,0.57481c-0.03701,0.06768-0.13422,0.06768-0.17123,0
			l-0.31437-0.57481c-0.00896-0.01637-0.02242-0.02983-0.03879-0.03879l-0.57481-0.31437
			c-0.06768-0.03701-0.06768-0.13422,0-0.17123l0.57481-0.31437C57.7508,62.04617,57.76427,62.03271,57.77322,62.01633z"/>
		<path class="st0" d="M79.53029,69.69755l0.54001-0.98737c0.06358-0.11625,0.23055-0.11625,0.29413,0l0.54,0.98737
			c0.01539,0.02813,0.03851,0.05125,0.06664,0.06664l0.98737,0.54001c0.11625,0.06358,0.11625,0.23055,0,0.29412l-0.98737,0.54001
			c-0.02812,0.01538-0.05125,0.03851-0.06664,0.06664l-0.54,0.98737c-0.06358,0.11625-0.23055,0.11625-0.29413,0l-0.54001-0.98737
			c-0.01538-0.02813-0.03851-0.05125-0.06664-0.06664l-0.98736-0.54001c-0.11626-0.06358-0.11626-0.23055,0-0.29412l0.98736-0.54001
			C79.49178,69.7488,79.51491,69.72568,79.53029,69.69755z"/>
		<path class="st0" d="M74.3594,47.4812l1.04034-1.90217c0.12249-0.22396,0.44415-0.22396,0.56664,0l1.04034,1.90217
			c0.02963,0.05418,0.07418,0.09873,0.12836,0.12837l1.90217,1.04033c0.22396,0.12249,0.22396,0.44415,0,0.56664l-1.90217,1.04033
			c-0.05418,0.02963-0.09873,0.07418-0.12836,0.12836l-1.04034,1.90217c-0.12249,0.22396-0.44415,0.22396-0.56664,0
			l-1.04034-1.90217c-0.02963-0.05418-0.07418-0.09873-0.12836-0.12836l-1.90217-1.04033
			c-0.22396-0.12249-0.22396-0.44415,0-0.56664l1.90217-1.04033C74.28522,47.57993,74.32977,47.53538,74.3594,47.4812z"/>
		<path class="st0" d="M18.15498,31.36103l1.04033-1.90217c0.12249-0.22396,0.44415-0.22396,0.56664,0l1.04033,1.90217
			c0.02963,0.05418,0.07418,0.09873,0.12837,0.12837l1.90217,1.04033c0.22396,0.12249,0.22396,0.44415,0,0.56664l-1.90217,1.04033
			c-0.05418,0.02963-0.09873,0.07418-0.12837,0.12836l-1.04033,1.90217c-0.12249,0.22396-0.44415,0.22396-0.56664,0
			l-1.04033-1.90217c-0.02963-0.05418-0.07418-0.09873-0.12837-0.12836l-1.90217-1.04033
			c-0.22396-0.12249-0.22396-0.44415,0-0.56664l1.90217-1.04033C18.08079,31.45976,18.12534,31.41521,18.15498,31.36103z"/>
		<path class="st0" d="M89.95146,35.40726l0.46555-0.85122c0.05482-0.10022,0.19876-0.10022,0.25357,0l0.46555,0.85122
			c0.01326,0.02425,0.0332,0.04418,0.05744,0.05744l0.85122,0.46555c0.10023,0.05481,0.10023,0.19876,0,0.25357l-0.85122,0.46555
			c-0.02425,0.01326-0.04418,0.0332-0.05744,0.05745l-0.46555,0.85122c-0.05481,0.10022-0.19875,0.10022-0.25357,0l-0.46555-0.85122
			c-0.01326-0.02425-0.0332-0.04418-0.05744-0.05745l-0.85122-0.46555c-0.10023-0.05481-0.10023-0.19876,0-0.25357l0.85122-0.46555
			C89.91827,35.45144,89.9382,35.43151,89.95146,35.40726z"/>
		<g>
			<path class="st1" d="M65.49259,49.0491c-2.97844,7.63921-10.40574,13.03528-19.09187,13.03528
				c-11.32792,0-20.49993-9.17209-20.49993-20.5c0-7.50215,4.0252-14.06957,10.04444-17.63376
				c-0.9097,2.31799-1.40836,4.83526-1.40836,7.46472c0,11.31551,9.18464,20.5,20.50008,20.5
				C58.85025,51.91534,62.43946,50.86858,65.49259,49.0491z"/>
			<path class="st2" d="M66.9008,41.58437c0,2.62946-0.49851,5.14681-1.40821,7.46472
				c-3.05313,1.81948-6.64235,2.86625-10.45564,2.86625c-11.31544,0-20.50008-9.18449-20.50008-20.5
				c0-2.62946,0.49866-5.14673,1.40836-7.46472c3.05313-1.8194,6.62971-2.86624,10.45548-2.86624
				C57.72879,21.08437,66.9008,30.26886,66.9008,41.58437z"/>
		</g>
	</g>
</g>
</svg>
