<?xml version="1.0" encoding="utf-8"?>
<!-- Generator: Adobe Illustrator 22.1.0, SVG Export Plug-In . SVG Version: 6.00 Build 0)  -->
<svg version="1.1" id="Layer_1" xmlns="http://www.w3.org/2000/svg" xmlns:xlink="http://www.w3.org/1999/xlink" x="0px" y="0px"
	 viewBox="0 0 91 52" style="enable-background:new 0 0 91 52;" xml:space="preserve">
<style type="text/css">
	.st0{fill:#E8ECF7;}
	.st1{fill:#FDB813;}
</style>
<g id="Layer_2_1_">
	<g>
		<path class="st0" d="M27.49496,35.24405c0,2.55502-2.07001,4.62-4.62,4.62H5.62c-2.55005,0-4.62-2.06497-4.62-4.62
			c0-2.23999,1.59497-4.10498,3.70996-4.52499c-0.01501-0.13998-0.02002-0.28-0.02002-0.42499
			c0-2.47501,2.005-4.48001,4.47998-4.48001c0.71008,0,1.38,0.16501,1.97504,0.45502c1.22003-1.84003,3.31-3.05002,5.67999-3.05002
			c3.76501,0,6.82001,3.05499,6.82001,6.82001c0,0.22-0.01001,0.435-0.03,0.64999
			C25.81497,31.03906,27.49496,32.94406,27.49496,35.24405z"/>
		<circle class="st1" cx="42.41163" cy="17.33893" r="16.45013"/>
		<path class="st0" d="M89.76583,42.64035c0,4.62234-3.74488,8.35811-8.35811,8.35811H50.19145
			c-4.61334,0-8.35812-3.73577-8.35812-8.35811c0-4.05241,2.88549-7.42639,6.71176-8.18624
			c-0.02716-0.25325-0.03622-0.50655-0.03622-0.76885c0-4.47758,3.62729-8.10487,8.10481-8.10487
			c1.28462,0,2.49659,0.29852,3.57307,0.82318c2.20718-3.32882,5.98817-5.51784,10.27577-5.51784
			c6.81136,0,12.3382,5.52684,12.3382,12.3382c0,0.39801-0.0181,0.78696-0.05427,1.17591
			C86.72653,35.03303,89.76583,38.4794,89.76583,42.64035z"/>
	</g>
</g>
</svg>
