<?xml version="1.0" encoding="utf-8"?>
<!-- Generator: Adobe Illustrator 22.1.0, SVG Export Plug-In . SVG Version: 6.00 Build 0)  -->
<svg version="1.1" id="Layer_1" xmlns="http://www.w3.org/2000/svg" xmlns:xlink="http://www.w3.org/1999/xlink" x="0px" y="0px"
	 viewBox="0 0 91 52" style="enable-background:new 0 0 91 52;" xml:space="preserve">
<style type="text/css">
	.st0{fill:#FFC655;}
	.st1{fill:#272A33;}
	.st2{fill:#ABAFB7;}
</style>
<g id="Layer_2_1_">
	<g>
		<g>
			<path class="st0" d="M57.73483,23.32726c-2.39001,6.13-8.34998,10.46002-15.32007,10.46002
				c-9.08997,0-16.44995-7.36005-16.44995-16.45001c0-6.02002,3.22998-11.28998,8.06006-14.15002
				c-0.72998,1.86005-1.13013,3.88-1.13013,5.98999c0,9.08002,7.37012,16.45001,16.45007,16.45001
				C52.40475,25.62725,55.28487,24.78728,57.73483,23.32726z"/>
			<path class="st1" d="M58.86483,17.33727c0,2.10999-0.40002,4.13-1.13,5.98999c-2.44995,1.46002-5.33008,2.29999-8.39001,2.29999
				c-9.07996,0-16.45007-7.37-16.45007-16.45001c0-2.10998,0.40015-4.12994,1.13013-5.98999
				c2.44995-1.45996,5.31995-2.29999,8.38989-2.29999C51.50484,0.88726,58.86483,8.25726,58.86483,17.33727z"/>
		</g>
		<path class="st2" d="M27.49496,35.24559c0,2.55502-2.07001,4.62-4.62,4.62H5.62c-2.55005,0-4.62-2.06497-4.62-4.62
			c0-2.23999,1.59497-4.10498,3.70996-4.52499c-0.01501-0.13998-0.02002-0.28-0.02002-0.42499
			c0-2.47501,2.005-4.48001,4.47998-4.48001c0.71008,0,1.38,0.16501,1.97504,0.45502c1.22003-1.84003,3.31-3.05002,5.67999-3.05002
			c3.76501,0,6.82001,3.05499,6.82001,6.82001c0,0.22-0.01001,0.435-0.03,0.64999
			C25.81497,31.0406,27.49496,32.9456,27.49496,35.24559z"/>
		<path class="st2" d="M89.76583,42.64189c0,4.62234-3.74488,8.35811-8.35811,8.35811H50.19145
			c-4.61334,0-8.35812-3.73577-8.35812-8.35811c0-4.05241,2.88549-7.42639,6.71176-8.18624
			c-0.02716-0.25325-0.03622-0.50655-0.03622-0.76886c0-4.47758,3.62729-8.10486,8.10481-8.10486
			c1.28462,0,2.49659,0.29852,3.57307,0.82318c2.20718-3.32882,5.98817-5.51784,10.27577-5.51784
			c6.81136,0,12.3382,5.52684,12.3382,12.3382c0,0.39801-0.0181,0.78696-0.05427,1.17591
			C86.72653,35.03457,89.76583,38.48094,89.76583,42.64189z"/>
	</g>
</g>
</svg>
