<?xml version="1.0" encoding="utf-8"?>
<!-- Generator: Adobe Illustrator 22.1.0, SVG Export Plug-In . SVG Version: 6.00 Build 0)  -->
<svg version="1.1" id="Layer_1" xmlns="http://www.w3.org/2000/svg" xmlns:xlink="http://www.w3.org/1999/xlink" x="0px" y="0px"
	 viewBox="0 0 91 44" style="enable-background:new 0 0 91 44;" xml:space="preserve">
<style type="text/css">
	.st0{fill:#FFC655;}
	.st1{fill:#272A33;}
	.st2{fill:#ABAFB7;}
</style>
<g id="Layer_2_1_">
	<g>
		<g>
			<path class="st0" d="M57.50898,26.78109c-2.39001,6.13-8.34998,10.46002-15.32007,10.46002
				c-9.08997,0-16.44995-7.36005-16.44995-16.45001c0-6.02002,3.22998-11.28998,8.06006-14.15002
				c-0.72998,1.86005-1.13013,3.88-1.13013,5.98999c0,9.08002,7.37012,16.45001,16.45007,16.45001
				C52.1789,29.08108,55.05903,28.24111,57.50898,26.78109z"/>
			<path class="st1" d="M58.63898,20.7911c0,2.10999-0.40002,4.13-1.13,5.98999c-2.44995,1.46002-5.33008,2.29999-8.39001,2.29999
				c-9.07996,0-16.45007-7.37-16.45007-16.45001c0-2.10999,0.40015-4.12994,1.13013-5.98999
				c2.44995-1.45996,5.31995-2.29999,8.38989-2.29999C51.279,4.34109,58.63898,11.71108,58.63898,20.7911z"/>
		</g>
		<path class="st2" d="M90.22585,36.0639c0,3.73008-3.022,6.74474-6.74474,6.74474H58.29056
			c-3.72282,0-6.74473-3.01466-6.74473-6.74474c0-3.27016,2.3285-5.99286,5.41617-6.60604
			c-0.02192-0.20436-0.02922-0.40877-0.02922-0.62044c0-3.61326,2.92711-6.54037,6.54033-6.54037
			c1.03665,0,2.01467,0.2409,2.88336,0.66428c1.78112-2.68626,4.83227-4.45272,8.29222-4.45272
			c5.49655,0,9.95654,4.45999,9.95654,9.95654c0,0.32118-0.01461,0.63505-0.04379,0.94893
			C87.77322,29.92504,90.22585,32.70615,90.22585,36.0639z"/>
		<path class="st2" d="M27.26912,25.80568c0,2.55502-2.07001,4.62-4.62,4.62H5.39415c-2.55005,0-4.62-2.06497-4.62-4.62
			c0-2.23999,1.59497-4.10498,3.70996-4.52499c-0.01501-0.13998-0.02002-0.28-0.02002-0.42499
			c0-2.47501,2.005-4.48001,4.47998-4.48001c0.71008,0,1.38,0.16501,1.97504,0.45502c1.22003-1.84003,3.31-3.05002,5.67999-3.05002
			c3.76501,0,6.82001,3.05499,6.82001,6.82001c0,0.22-0.01001,0.435-0.03,0.64999
			C25.58913,21.6007,27.26912,23.5057,27.26912,25.80568z"/>
		<path class="st2" d="M49.26277,6.54102c0,1.13668-0.9209,2.05534-2.05534,2.05534h-7.67637
			c-1.13446,0-2.05534-0.91866-2.05534-2.05534c0-0.99652,0.70957-1.82622,1.65048-2.01307
			c-0.00668-0.06228-0.00891-0.12457-0.00891-0.18907c0-1.10108,0.89198-1.99306,1.99305-1.99306
			c0.3159,0,0.61394,0.07341,0.87865,0.20243c0.54276-0.81859,1.47255-1.35689,2.52691-1.35689
			c1.67497,0,3.03408,1.3591,3.03408,3.03408c0,0.09787-0.00446,0.19352-0.01335,0.28917
			C48.51537,4.67031,49.26277,5.51781,49.26277,6.54102z"/>
	</g>
</g>
</svg>
