<?xml version="1.0" encoding="utf-8"?>
<!-- Generator: Adobe Illustrator 22.1.0, SVG Export Plug-In . SVG Version: 6.00 Build 0)  -->
<svg version="1.1" id="Layer_2" xmlns="http://www.w3.org/2000/svg" xmlns:xlink="http://www.w3.org/1999/xlink" x="0px" y="0px"
	 viewBox="0 0 89 38" style="enable-background:new 0 0 89 38;" xml:space="preserve">
<style type="text/css">
	.st0{fill:#FDB813;}
	.st1{fill:#E8ECF7;}
</style>
<g>
	<circle class="st0" cx="42.86496" cy="17.26381" r="16.45013"/>
	<path class="st1" d="M88.12164,28.35768c0,2.33655-1.89301,4.22495-4.22495,4.22495H68.11716
		c-2.33199,0-4.22495-1.8884-4.22495-4.22495c0-2.04845,1.45859-3.75397,3.39273-4.13807
		c-0.01373-0.12802-0.01831-0.25606-0.01831-0.38865c0-2.26337,1.83356-4.09693,4.09691-4.09693
		c0.64936,0,1.262,0.1509,1.80615,0.41611c1.11571-1.68269,3.02696-2.78922,5.19431-2.78922
		c3.44307,0,6.23684,2.79377,6.23684,6.23684c0,0.20119-0.00916,0.3978-0.02744,0.59441
		C86.5853,24.51226,88.12164,26.25436,88.12164,28.35768z"/>
	<path class="st1" d="M21.59372,28.77963c0,1.91895-1.61846,3.46985-3.61219,3.46985H4.49055
		c-1.99378,0-3.61219-1.5509-3.61219-3.46985c0-1.68235,1.24704-3.08305,2.90067-3.3985
		c-0.01174-0.10513-0.01565-0.21029-0.01565-0.31919c0-1.85885,1.56763-3.36472,3.50272-3.36472
		c0.55519,0,1.07897,0.12393,1.5442,0.34174c0.95389-1.38195,2.58796-2.29072,4.44096-2.29072
		c2.94372,0,5.33229,2.29445,5.33229,5.12217c0,0.16523-0.00783,0.3267-0.02345,0.48818
		C20.2802,25.62147,21.59372,27.05222,21.59372,28.77963z"/>
	<path class="st1" d="M35.2929,33.08114c0,1.45673-1.22861,2.63406-2.74211,2.63406H22.30943
		c-1.51353,0-2.74211-1.17733-2.74211-2.63406c0-1.27711,0.94666-2.34043,2.20198-2.5799
		c-0.00891-0.07981-0.01188-0.15964-0.01188-0.2423c0-1.41111,1.19003-2.55424,2.65901-2.55424
		c0.42146,0,0.81908,0.09408,1.17225,0.25942c0.72413-1.04908,1.96459-1.73895,3.37125-1.73895
		c2.23465,0,4.04789,1.74178,4.04789,3.88838c0,0.12543-0.00594,0.24801-0.0178,0.37059
		C34.29578,30.68369,35.2929,31.76982,35.2929,33.08114z"/>
	<path class="st1" d="M34.05302,18.22797c0,1.91895-1.61846,3.46985-3.61219,3.46985H16.94986
		c-1.99378,0-3.61219-1.5509-3.61219-3.46985c0-1.68235,1.24704-3.08305,2.90067-3.3985
		c-0.01174-0.10513-0.01565-0.21029-0.01565-0.31919c0-1.85886,1.56763-3.36472,3.50272-3.36472
		c0.55519,0,1.07897,0.12393,1.5442,0.34174c0.9539-1.38195,2.58796-2.29072,4.44096-2.29072
		c2.94371,0,5.33229,2.29445,5.33229,5.12217c0,0.16523-0.00783,0.3267-0.02346,0.48818
		C32.73951,15.06981,34.05302,16.50056,34.05302,18.22797z"/>
	<path class="st1" d="M55.20219,34.17753c0,1.66397-1.3481,3.00879-3.0088,3.00879H40.95601
		c-1.66073,0-3.00879-1.34482-3.00879-3.00879c0-1.45881,1.03873-2.67339,2.41613-2.94693
		c-0.00978-0.09117-0.01304-0.18235-0.01304-0.27678c0-1.61186,1.30577-2.91763,2.91761-2.91763
		c0.46244,0,0.89874,0.10746,1.28625,0.29633c0.79455-1.19833,2.15565-1.98634,3.69912-1.98634
		c2.45198,0,4.44156,1.98958,4.44156,4.44156c0,0.14328-0.00652,0.28329-0.01954,0.42331
		C54.10809,31.43901,55.20219,32.67965,55.20219,34.17753z"/>
	<path class="st1" d="M53.00261,16.77256c0,1.20848-0.97908,2.18518-2.18518,2.18518h-8.16131
		c-1.20613,0-2.18518-0.9767-2.18518-2.18518c0-1.05948,0.75439-1.94159,1.75475-2.14024
		c-0.0071-0.06621-0.00947-0.13243-0.00947-0.20101c0-1.17064,0.94833-2.11897,2.11896-2.11897
		c0.33586,0,0.65272,0.07805,0.93416,0.21522c0.57705-0.8703,1.56557-1.44261,2.68654-1.44261
		c1.78079,0,3.22575,1.44496,3.22575,3.22575c0,0.10406-0.00473,0.20575-0.01419,0.30744
		C52.20801,14.78367,53.00261,15.6847,53.00261,16.77256z"/>
	<path class="st1" d="M63.79109,21.49947c0,1.20848-0.97908,2.18518-2.18518,2.18518H53.4446
		c-1.20613,0-2.18518-0.9767-2.18518-2.18518c0-1.05948,0.75439-1.94159,1.75475-2.14024
		c-0.0071-0.06621-0.00947-0.13243-0.00947-0.20101c0-1.17064,0.94833-2.11897,2.11895-2.11897
		c0.33586,0,0.65272,0.07805,0.93416,0.21522c0.57705-0.8703,1.56557-1.44261,2.68654-1.44261
		c1.78079,0,3.22575,1.44496,3.22575,3.22575c0,0.10406-0.00473,0.20575-0.01419,0.30744
		C62.99648,19.51058,63.79109,20.41161,63.79109,21.49947z"/>
	<path class="st1" d="M42.04661,27.67345c0,0.99943-0.84292,1.80717-1.8813,1.80717h-7.02637
		c-1.0384,0-1.8813-0.80774-1.8813-1.80717c0-0.8762,0.64948-1.60571,1.51073-1.77
		c-0.00611-0.05476-0.00815-0.10953-0.00815-0.16624c0-0.96813,0.81645-1.75241,1.82428-1.75241
		c0.28915,0,0.56195,0.06455,0.80425,0.17799c0.4968-0.71975,1.34785-1.19305,2.31294-1.19305
		c1.53314,0,2.77716,1.195,2.77716,2.66773c0,0.08606-0.00408,0.17015-0.01221,0.25425
		C41.3625,26.02862,42.04661,26.77378,42.04661,27.67345z"/>
	<path class="st1" d="M71.56501,11.37636c0,0.96644-0.78298,1.74753-1.74752,1.74753h-6.52674
		c-0.96456,0-1.74752-0.78108-1.74752-1.74753c0-0.84728,0.6033-1.55272,1.40331-1.71159
		c-0.00568-0.05295-0.00757-0.10591-0.00757-0.16075c0-0.93618,0.7584-1.69457,1.69456-1.69457
		c0.26859,0,0.52199,0.06242,0.74706,0.17211c0.46148-0.69599,1.25201-1.15368,2.14847-1.15368
		c1.42413,0,2.57968,1.15556,2.57968,2.57968c0,0.08322-0.00378,0.16454-0.01134,0.24586
		C70.92955,9.78582,71.56501,10.50639,71.56501,11.37636z"/>
	<path class="st1" d="M41.18642,11.72338c0,1.13667-0.9209,2.05534-2.05534,2.05534h-7.67637
		c-1.13446,0-2.05534-0.91866-2.05534-2.05534c0-0.99652,0.70957-1.82622,1.65048-2.01307
		c-0.00668-0.06228-0.00891-0.12457-0.00891-0.18907c0-1.10108,0.89198-1.99306,1.99305-1.99306
		c0.3159,0,0.61393,0.07341,0.87865,0.20243c0.54277-0.81859,1.47255-1.35689,2.52691-1.35689
		c1.67498,0,3.03408,1.3591,3.03408,3.03407c0,0.09787-0.00445,0.19352-0.01335,0.28917
		C40.43903,9.85267,41.18642,10.70016,41.18642,11.72338z"/>
</g>
</svg>
