<?xml version="1.0" encoding="utf-8"?>
<!-- Generator: Adobe Illustrator 22.1.0, SVG Export Plug-In . SVG Version: 6.00 Build 0)  -->
<svg version="1.1" id="Layer_2" xmlns="http://www.w3.org/2000/svg" xmlns:xlink="http://www.w3.org/1999/xlink" x="0px" y="0px"
	 viewBox="0 0 89 58" style="enable-background:new 0 0 89 58;" xml:space="preserve">
<style type="text/css">
	.st0{fill:#FFC655;}
	.st1{fill:#272A33;}
	.st2{fill:#ABAFB7;}
</style>
<g>
	<g>
		<path class="st0" d="M59.66607,33.45314c-2.39001,6.13-8.34998,10.46002-15.32007,10.46002
			c-9.08997,0-16.44995-7.36005-16.44995-16.45001c0-6.02002,3.22998-11.28998,8.06006-14.15002
			c-0.72998,1.86005-1.13013,3.88-1.13013,5.98999c0,9.08002,7.37012,16.45001,16.45007,16.45001
			C54.33599,35.75313,57.21612,34.91316,59.66607,33.45314z"/>
		<path class="st1" d="M60.79608,27.46315c0,2.10999-0.40002,4.13-1.13,5.98999c-2.44995,1.46002-5.33008,2.29999-8.39001,2.29999
			c-9.07996,0-16.45007-7.36999-16.45007-16.45001c0-2.10999,0.40015-4.12994,1.13013-5.98999
			c2.44995-1.45996,5.31995-2.29999,8.38989-2.29999C53.43609,11.01314,60.79608,18.38313,60.79608,27.46315z"/>
	</g>
	<path class="st2" d="M74.93134,18.02338c0,2.33655-1.89301,4.22495-4.22495,4.22495H54.92687
		c-2.332,0-4.22495-1.8884-4.22495-4.22495c0-2.04845,1.45859-3.75397,3.39273-4.13807
		c-0.01373-0.12801-0.01831-0.25606-0.01831-0.38865c0-2.26337,1.83356-4.09693,4.0969-4.09693
		c0.64936,0,1.262,0.1509,1.80616,0.41611c1.11571-1.68269,3.02696-2.78922,5.19431-2.78922
		c3.44307,0,6.23684,2.79377,6.23684,6.23684c0,0.20119-0.00916,0.3978-0.02744,0.59441
		C73.395,14.17796,74.93134,15.92006,74.93134,18.02338z"/>
	<path class="st2" d="M33.79927,39.5466c0,0.96644-0.78299,1.74752-1.74752,1.74752h-6.52674
		c-0.96456,0-1.74752-0.78108-1.74752-1.74752c0-0.84728,0.6033-1.55272,1.4033-1.71159
		c-0.00568-0.05295-0.00757-0.10591-0.00757-0.16076c0-0.93618,0.7584-1.69457,1.69456-1.69457
		c0.26859,0,0.52199,0.06241,0.74706,0.17211c0.46148-0.69599,1.25201-1.15368,2.14847-1.15368
		c1.42413,0,2.57969,1.15556,2.57969,2.57969c0,0.08321-0.00379,0.16454-0.01135,0.24586
		C33.16381,37.95605,33.79927,38.67663,33.79927,39.5466z"/>
	<path class="st2" d="M52.83333,24.52505c0,4.99851-4.04965,9.03831-9.03831,9.03831H10.03831
		C5.04953,33.56337,1,29.52357,1,24.52505c0-4.3822,3.12032-8.03076,7.25797-8.85246
		C8.2286,15.39874,8.2188,15.12482,8.2188,14.84118c0-4.84197,3.92248-8.76445,8.76439-8.76445
		c1.38917,0,2.69977,0.32281,3.86386,0.89017C23.23386,3.36716,27.32256,1,31.95909,1c7.36567,0,13.3423,5.97662,13.3423,13.3423
		c0,0.4304-0.01958,0.85101-0.05869,1.27161C49.54668,16.29865,52.83333,20.02548,52.83333,24.52505z"/>
	<path class="st2" d="M88.05267,47.97298c0,5.11005-4.14001,9.23999-9.23999,9.23999H44.30274
		c-5.1001,0-9.23999-4.12994-9.23999-9.23999c0-4.47998,3.18994-8.20996,7.41992-9.04999
		c-0.03003-0.27997-0.04004-0.56-0.04004-0.84998c0-4.95001,4.01001-8.96002,8.95996-8.96002
		c1.42017,0,2.76001,0.33002,3.95007,0.91003c2.44006-3.68005,6.62-6.10004,11.35998-6.10004
		c7.53003,0,13.64001,6.10999,13.64001,13.64001c0,0.44-0.02002,0.87-0.06,1.29999
		C84.69269,39.56301,88.05267,43.373,88.05267,47.97298z"/>
</g>
</svg>
