<?xml version="1.0" encoding="utf-8"?>
<!-- Generator: Adobe Illustrator 22.1.0, SVG Export Plug-In . SVG Version: 6.00 Build 0)  -->
<svg version="1.1" id="Layer_2" xmlns="http://www.w3.org/2000/svg" xmlns:xlink="http://www.w3.org/1999/xlink" x="0px" y="0px"
	 viewBox="0 0 55 61" style="enable-background:new 0 0 55 61;" xml:space="preserve">
<style type="text/css">
	.st0{fill:#FFC655;}
	.st1{fill:#272A33;}
	.st2{fill:#838A96;}
	.st3{fill:#5086FF;}
</style>
<g>
	<g>
		<path class="st0" d="M43.45717,23.44c-2.39001,6.13-8.34998,10.46002-15.32007,10.46002
			c-9.08997,0-16.44995-7.36005-16.44995-16.45001c0-6.02002,3.22998-11.28998,8.06006-14.15002
			c-0.72998,1.86005-1.13013,3.88-1.13013,5.98999c0,9.08002,7.37012,16.45001,16.45007,16.45001
			C38.12709,25.73999,41.00722,24.90002,43.45717,23.44z"/>
		<path class="st1" d="M44.58718,17.45001c0,2.10999-0.40002,4.13-1.13,5.98999c-2.44995,1.46002-5.33008,2.29999-8.39001,2.29999
			c-9.07995,0-16.45007-7.37-16.45007-16.45001c0-2.10999,0.40015-4.12994,1.13013-5.98999C22.19716,1.84003,25.06716,1,28.13711,1
			C37.22719,1,44.58718,8.37,44.58718,17.45001z"/>
	</g>
	<path class="st2" d="M53.98993,33.04372c0,5.11005-4.14001,9.23999-9.23999,9.23999H10.23999
		C5.13989,42.28371,1,38.15377,1,33.04372c0-4.47998,3.18994-8.20996,7.41992-9.04999
		c-0.03003-0.27997-0.04004-0.56-0.04004-0.84998c0-4.95001,4.01001-8.96002,8.95996-8.96002
		c1.42017,0,2.76001,0.33002,3.95007,0.91003c2.44006-3.68005,6.62-6.10004,11.35999-6.10004
		c7.53003,0,13.64001,6.10999,13.64001,13.64002c0,0.44-0.02002,0.87-0.06,1.29999
		C50.62994,24.63375,53.98993,28.44374,53.98993,33.04372z"/>
	<g>
		<path class="st3" d="M23.20151,48.90646c0.01001,0.03998,0.01001,0.08997,0.01001,0.13c0,1.13995-0.92004,2.07001-2.07007,2.07001
			c-1.14001,0-2.07007-0.93005-2.07007-2.07001c0-0.04004,0-0.09003,0.01001-0.13h-0.01001l0.01001-0.02002l0.37012-1.06
			l1.07996-3.03998l0.03003-0.09003c0.08997-0.23999,0.30994-0.40997,0.57996-0.40997s0.48999,0.16998,0.58008,0.40997
			l0.02991,0.09003l1.07996,3.03998l0.37012,1.06l0.01001,0.02002H23.20151z"/>
		<path class="st3" d="M29.59564,57.65312c0.01001,0.03998,0.01001,0.08997,0.01001,0.13c0,1.13995-0.92004,2.07001-2.07007,2.07001
			c-1.14001,0-2.07007-0.93005-2.07007-2.07001c0-0.04004,0-0.09003,0.01001-0.13h-0.01001l0.01001-0.02002l0.37012-1.06
			l1.07996-3.03998l0.03003-0.09003c0.08997-0.23999,0.30994-0.40997,0.57996-0.40997s0.48999,0.16998,0.58008,0.40997
			l0.02991,0.09003l1.07996,3.03998l0.37012,1.06l0.01001,0.02002H29.59564z"/>
		<path class="st3" d="M35.98984,48.90646c0.01001,0.03998,0.01001,0.08997,0.01001,0.13c0,1.13995-0.92004,2.07001-2.07007,2.07001
			c-1.14001,0-2.07007-0.93005-2.07007-2.07001c0-0.04004,0-0.09003,0.01001-0.13h-0.01001l0.01001-0.02002l0.37012-1.06
			l1.07996-3.03998l0.03003-0.09003c0.08997-0.23999,0.30994-0.40997,0.57996-0.40997s0.48999,0.16998,0.58008,0.40997
			l0.02991,0.09003l1.07996,3.03998l0.37012,1.06l0.01001,0.02002H35.98984z"/>
	</g>
</g>
</svg>
