<?xml version="1.0" encoding="utf-8"?>
<!-- Generator: Adobe Illustrator 22.1.0, SVG Export Plug-In . SVG Version: 6.00 Build 0)  -->
<svg version="1.1" id="Layer_2" xmlns="http://www.w3.org/2000/svg" xmlns:xlink="http://www.w3.org/1999/xlink" x="0px" y="0px"
	 viewBox="0 0 76 76" style="enable-background:new 0 0 76 76;" xml:space="preserve">
<style type="text/css">
	.st0{fill:#71B7D3;}
	.st1{fill:#5086FF;}
	.st2{fill:#FDB813;}
	.st3{fill:#838A96;}
	.st4{fill:#BDEFFF;}
	.st5{fill:#2E323A;}
</style>
<g>
	<g>
		<path class="st0" d="M38.63063,30.97563l-0.80259,0.00208c0,0.00062,0,0.00145,0,0.00145
			c-0.01682-0.06562-0.04288-0.12808-0.07758-0.18476l0.36011-0.36275c0.06647-0.06717,0.06647-0.17519-0.00046-0.24182
			c-0.0674-0.06647-0.17551-0.06594-0.24275,0.00147l-0.35997,0.36227c-0.05676-0.03416-0.11922-0.06038-0.18384-0.07626
			l-0.00354-0.80259c0-0.09463-0.07696-0.17127-0.17227-0.17042c-0.09346,0.00046-0.17151,0.07696-0.16966,0.17181l0.00187,0.80259
			c-0.06572,0.01627-0.12679,0.04248-0.18339,0.07664l-0.3433-0.34029c-0.06679-0.06725-0.17505-0.06687-0.24229,0
			c-0.06677,0.06739-0.06677,0.17596,0,0.24228l0.34378,0.34154c0.00077-0.00084,0.00077-0.00084,0.00077-0.00084
			c-0.0341,0.05706-0.06061,0.11952-0.07743,0.18645c0.00123-0.00054,0.00123-0.00092,0.00123-0.00092l-0.80321,0.00223
			c-0.09439,0-0.17074,0.07751-0.16965,0.17258c0,0.09439,0.0765,0.17058,0.17119,0.17018l0.80214-0.00354v-0.00085
			c0.01726,0.06594,0.04333,0.1284,0.07742,0.18516l-0.35997,0.36219c-0.06677,0.06695-0.06647,0.17721,0.00123,0.24323
			c0.03285,0.03315,0.07712,0.04958,0.12138,0.04958c0.04364-0.001,0.08683-0.01726,0.12059-0.05051l0.35997-0.36283
			c0.05676,0.0341,0.11922,0.05946,0.18478,0.07581l0.00308,0.80245c0,0.09531,0.07742,0.17104,0.17104,0.17058
			c0.09501,0,0.17119-0.0765,0.17088-0.17135l-0.0023-0.80344c0.06554-0.01635,0.12848-0.04334,0.18476-0.07696h-0.00046
			l0.34237,0.34092c0.03362,0.03416,0.07759,0.04989,0.12138,0.04989c0.04379,0,0.0876-0.0172,0.12138-0.0509
			c0.06677-0.06731,0.06631-0.17473-0.00047-0.24214l-0.34377-0.34015c0,0,0,0.00046-0.00077,0.00046
			c0.03408-0.05698,0.05968-0.11913,0.0765-0.18514l0.80289-0.00316c0.09346-0.00085,0.17104-0.07704,0.16966-0.17228
			C38.80137,31.05182,38.72487,30.9747,38.63063,30.97563z M37.15437,31.41927c-0.14758,0.00046-0.26758-0.11868-0.26788-0.26559
			c-0.00139-0.1479,0.11859-0.26851,0.26696-0.26936c0.14698,0,0.26789,0.11868,0.26789,0.26714
			C37.42273,31.29888,37.30274,31.41887,37.15437,31.41927z"/>
	</g>
	<g>
		<path class="st1" d="M29.79673,51.66132c0.01001,0.03998,0.01001,0.08997,0.01001,0.13c0,1.13995-0.92004,2.07001-2.07007,2.07001
			c-1.14001,0-2.07007-0.93005-2.07007-2.07001c0-0.04004,0-0.09003,0.01001-0.13H25.6666l0.01001-0.02002l0.37012-1.06
			l1.07996-3.03998l0.03003-0.09003c0.08997-0.23999,0.30994-0.40997,0.57996-0.40997s0.48999,0.16998,0.58008,0.40997
			l0.02991,0.09003l1.07996,3.03998l0.37012,1.06l0.01001,0.02002H29.79673z"/>
		<path class="st1" d="M36.19085,60.40798c0.01001,0.03998,0.01001,0.08997,0.01001,0.13c0,1.13995-0.92004,2.07001-2.07007,2.07001
			c-1.14001,0-2.07007-0.93005-2.07007-2.07001c0-0.04004,0-0.09003,0.01001-0.13h-0.01001l0.01001-0.02002l0.37012-1.06
			l1.07996-3.03998l0.03003-0.09003c0.08997-0.23999,0.30994-0.40997,0.57996-0.40997s0.48999,0.16998,0.58008,0.40997
			l0.02991,0.09003l1.07996,3.03998l0.37012,1.06l0.01001,0.02002H36.19085z"/>
		<path class="st1" d="M42.58505,51.66132c0.01001,0.03998,0.01001,0.08997,0.01001,0.13c0,1.13995-0.92004,2.07001-2.07007,2.07001
			c-1.14001,0-2.07007-0.93005-2.07007-2.07001c0-0.04004,0-0.09003,0.01001-0.13h-0.01001l0.01001-0.02002l0.37012-1.06
			l1.07996-3.03998l0.03003-0.09003c0.08997-0.23999,0.30994-0.40997,0.57996-0.40997s0.48999,0.16998,0.58008,0.40997
			l0.02991,0.09003l1.07996,3.03998l0.37012,1.06l0.01001,0.02002H42.58505z"/>
		<path class="st1" d="M48.97918,60.40798c0.01001,0.03998,0.01001,0.08997,0.01001,0.13c0,1.13995-0.92004,2.07001-2.07007,2.07001
			c-1.14001,0-2.07007-0.93005-2.07007-2.07001c0-0.04004,0-0.09003,0.01001-0.13h-0.01001l0.01001-0.02002l0.37012-1.06
			l1.07996-3.03998l0.03003-0.09003c0.08997-0.23999,0.30994-0.40997,0.57996-0.40997s0.48999,0.16998,0.58008,0.40997
			l0.02991,0.09003l1.07996,3.03998l0.37012,1.06l0.01001,0.02002H48.97918z"/>
		<path class="st1" d="M55.37337,51.66132c0.01001,0.03998,0.01001,0.08997,0.01001,0.13c0,1.13995-0.92004,2.07001-2.07007,2.07001
			c-1.14001,0-2.07007-0.93005-2.07007-2.07001c0-0.04004,0-0.09003,0.01001-0.13h-0.01001l0.01001-0.02002l0.37012-1.06
			l1.07996-3.03998l0.03003-0.09003c0.08997-0.23999,0.30994-0.40997,0.57996-0.40997s0.48999,0.16998,0.58008,0.40997
			l0.02991,0.09003l1.07996,3.03998l0.37012,1.06l0.01001,0.02002H55.37337z"/>
		<path class="st1" d="M17.0084,51.66132c0.01001,0.03998,0.01001,0.08997,0.01001,0.13c0,1.13995-0.92004,2.07001-2.07007,2.07001
			c-1.14001,0-2.07007-0.93005-2.07007-2.07001c0-0.04004,0-0.09003,0.01001-0.13h-0.01001l0.01001-0.02002l0.37012-1.06
			l1.07996-3.03998l0.03003-0.09003c0.08997-0.23999,0.30994-0.40997,0.57996-0.40997s0.48999,0.16998,0.58008,0.40997
			l0.02991,0.09003l1.07996,3.03998l0.37012,1.06l0.01001,0.02002H17.0084z"/>
		<path class="st1" d="M23.40253,60.40798c0.01001,0.03998,0.01001,0.08997,0.01001,0.13c0,1.13995-0.92004,2.07001-2.07007,2.07001
			c-1.14001,0-2.07007-0.93005-2.07007-2.07001c0-0.04004,0-0.09003,0.01001-0.13H19.2724l0.01001-0.02002l0.37012-1.06
			l1.07996-3.03998l0.03003-0.09003c0.08997-0.23999,0.30994-0.40997,0.57996-0.40997s0.48999,0.16998,0.58008,0.40997
			l0.02991,0.09003l1.07996,3.03998l0.37012,1.06l0.01001,0.02002H23.40253z"/>
		<path class="st1" d="M29.79669,69.15465c0.01001,0.03998,0.01001,0.08997,0.01001,0.13c0,1.13995-0.92004,2.07001-2.07007,2.07001
			c-1.14001,0-2.07007-0.93005-2.07007-2.07001c0-0.04004,0-0.09003,0.01001-0.13h-0.01001l0.01001-0.02002l0.37012-1.06
			l1.07996-3.03998l0.03003-0.09003c0.08997-0.23999,0.30994-0.40997,0.57996-0.40997s0.48999,0.16998,0.58008,0.40997
			l0.02991,0.09003l1.07996,3.03998l0.37012,1.06l0.01001,0.02002H29.79669z"/>
		<path class="st1" d="M42.58501,69.15465c0.01001,0.03998,0.01001,0.08997,0.01001,0.13c0,1.13995-0.92004,2.07001-2.07007,2.07001
			c-1.14001,0-2.07007-0.93005-2.07007-2.07001c0-0.04004,0-0.09003,0.01001-0.13h-0.01001l0.01001-0.02002l0.37012-1.06
			l1.07996-3.03998l0.03003-0.09003c0.08997-0.23999,0.30994-0.40997,0.57996-0.40997s0.48999,0.16998,0.58008,0.40997
			l0.02991,0.09003l1.07996,3.03998l0.37012,1.06l0.01001,0.02002H42.58501z"/>
		<path class="st1" d="M10.61424,60.40798c0.01001,0.03998,0.01001,0.08997,0.01001,0.13c0,1.13995-0.92004,2.07001-2.07007,2.07001
			c-1.14001,0-2.07007-0.93005-2.07007-2.07001c0-0.04004,0-0.09003,0.01001-0.13H6.48411l0.01001-0.02002l0.37012-1.06
			l1.07996-3.03998l0.03003-0.09003c0.08997-0.23999,0.30994-0.40997,0.57996-0.40997s0.48999,0.16998,0.58008,0.40997
			l0.02991,0.09003l1.07996,3.03998l0.37012,1.06l0.01001,0.02002H10.61424z"/>
		<path class="st1" d="M17.00836,69.15465c0.01001,0.03998,0.01001,0.08997,0.01001,0.13c0,1.13995-0.92004,2.07001-2.07007,2.07001
			c-1.14001,0-2.07007-0.93005-2.07007-2.07001c0-0.04004,0-0.09003,0.01001-0.13h-0.01001l0.01001-0.02002l0.37012-1.06
			l1.07996-3.03998l0.03003-0.09003c0.08997-0.23999,0.30994-0.40997,0.57996-0.40997s0.48999,0.16998,0.58008,0.40997
			l0.02991,0.09003l1.07996,3.03998l0.37012,1.06l0.01001,0.02002H17.00836z"/>
		<path class="st1" d="M17.0084,34.16799c0.01001,0.03998,0.01001,0.08997,0.01001,0.13c0,1.13995-0.92004,2.07001-2.07007,2.07001
			c-1.14001,0-2.07007-0.93005-2.07007-2.07001c0-0.04004,0-0.09003,0.01001-0.13h-0.01001l0.01001-0.02002l0.37012-1.06
			l1.07996-3.03998l0.03003-0.09003c0.08997-0.23999,0.30994-0.40997,0.57996-0.40997s0.48999,0.16998,0.58008,0.40997
			l0.02991,0.09003l1.07996,3.03998l0.37012,1.06l0.01001,0.02002H17.0084z"/>
		<path class="st1" d="M23.40253,42.91465c0.01001,0.03998,0.01001,0.08997,0.01001,0.13c0,1.13995-0.92004,2.07001-2.07007,2.07001
			c-1.14001,0-2.07007-0.93005-2.07007-2.07001c0-0.04004,0-0.09003,0.01001-0.13H19.2724l0.01001-0.02002l0.37012-1.06
			l1.07996-3.03998l0.03003-0.09003c0.08997-0.23999,0.30994-0.40997,0.57996-0.40997s0.48999,0.16998,0.58008,0.40997
			l0.02991,0.09003l1.07996,3.03998l0.37012,1.06l0.01001,0.02002H23.40253z"/>
		<path class="st1" d="M10.61424,42.91465c0.01001,0.03998,0.01001,0.08997,0.01001,0.13c0,1.13995-0.92004,2.07001-2.07007,2.07001
			c-1.14001,0-2.07007-0.93005-2.07007-2.07001c0-0.04004,0-0.09003,0.01001-0.13H6.48411l0.01001-0.02002l0.37012-1.06
			l1.07996-3.03998l0.03003-0.09003c0.08997-0.23999,0.30994-0.40997,0.57996-0.40997s0.48999,0.16998,0.58008,0.40997
			l0.02991,0.09003l1.07996,3.03998l0.37012,1.06l0.01001,0.02002H10.61424z"/>
		<path class="st1" d="M61.76746,60.40798c0.01001,0.03998,0.01001,0.08997,0.01001,0.13c0,1.13995-0.92004,2.07001-2.07007,2.07001
			c-1.14001,0-2.07007-0.93005-2.07007-2.07001c0-0.04004,0-0.09003,0.01001-0.13h-0.01001l0.01001-0.02002l0.37012-1.06
			l1.07996-3.03998l0.03003-0.09003c0.08997-0.23999,0.30994-0.40997,0.57996-0.40997s0.48999,0.16998,0.58008,0.40997
			l0.02991,0.09003l1.07996,3.03998l0.37012,1.06l0.01001,0.02002H61.76746z"/>
		<path class="st1" d="M68.16166,51.66132c0.01001,0.03998,0.01001,0.08997,0.01001,0.13c0,1.13995-0.92004,2.07001-2.07007,2.07001
			c-1.14001,0-2.07007-0.93005-2.07007-2.07001c0-0.04004,0-0.09003,0.01001-0.13h-0.01001l0.01001-0.02002l0.37012-1.06
			l1.07996-3.03998l0.03003-0.09003c0.08997-0.23999,0.30994-0.40997,0.57996-0.40997s0.48999,0.16998,0.58008,0.40997
			l0.02991,0.09003l1.07996,3.03998l0.37012,1.06l0.01001,0.02002H68.16166z"/>
		<path class="st1" d="M74.55579,60.40798c0.01001,0.03998,0.01001,0.08997,0.01001,0.13c0,1.13995-0.92004,2.07001-2.07007,2.07001
			c-1.14001,0-2.07007-0.93005-2.07007-2.07001c0-0.04004,0-0.09003,0.01001-0.13h-0.01001l0.01001-0.02002l0.37012-1.06
			l1.07996-3.03998l0.03003-0.09003c0.08997-0.23999,0.30994-0.40997,0.57996-0.40997s0.48999,0.16998,0.58008,0.40997
			l0.02991,0.09003l1.07996,3.03998l0.37012,1.06l0.01001,0.02002H74.55579z"/>
		<path class="st1" d="M55.3733,69.15465c0.01001,0.03998,0.01001,0.08997,0.01001,0.13c0,1.13995-0.92004,2.07001-2.07007,2.07001
			c-1.14001,0-2.07007-0.93005-2.07007-2.07001c0-0.04004,0-0.09003,0.01001-0.13h-0.01001l0.01001-0.02002l0.37012-1.06
			l1.07996-3.03998l0.03003-0.09003c0.08997-0.23999,0.30994-0.40997,0.57996-0.40997s0.48999,0.16998,0.58008,0.40997
			l0.02991,0.09003l1.07996,3.03998l0.37012,1.06l0.01001,0.02002H55.3733z"/>
		<path class="st1" d="M68.16162,69.15465c0.01001,0.03998,0.01001,0.08997,0.01001,0.13c0,1.13995-0.92004,2.07001-2.07007,2.07001
			c-1.14001,0-2.07007-0.93005-2.07007-2.07001c0-0.04004,0-0.09003,0.01001-0.13h-0.01001l0.01001-0.02002l0.37012-1.06
			l1.07996-3.03998l0.03003-0.09003c0.08997-0.23999,0.30994-0.40997,0.57996-0.40997s0.48999,0.16998,0.58008,0.40997
			l0.02991,0.09003l1.07996,3.03998l0.37012,1.06l0.01001,0.02002H68.16162z"/>
	</g>
	<circle class="st2" cx="34.73238" cy="20.20487" r="16.45013"/>
	<path class="st3" d="M51.25811,13.09209c0,2.4699-2.00105,4.46608-4.46609,4.46608H30.11188
		c-2.4651,0-4.46609-1.99618-4.46609-4.46608c0-2.16537,1.54184-3.96823,3.58637-4.37425
		c-0.01451-0.13532-0.01935-0.27067-0.01935-0.41083c0-2.39255,1.93821-4.33076,4.33073-4.33076
		c0.68643,0,1.33403,0.15951,1.90924,0.43986c1.17939-1.77873,3.19973-2.94841,5.49077-2.94841
		c3.63959,0,6.5928,2.95322,6.5928,6.5928c0,0.21267-0.00968,0.42051-0.029,0.62834
		C49.63408,9.02719,51.25811,10.86872,51.25811,13.09209z"/>
	<g>
		<g>
			<path class="st4" d="M27.74364,52.52079l-1.12887,0.00293c0,0.00087,0,0.00204,0,0.00204
				c-0.02366-0.09229-0.06031-0.18015-0.10911-0.25987l0.5065-0.51021c0.09349-0.09447,0.09349-0.24641-0.00064-0.34013
				c-0.0948-0.09349-0.24685-0.09274-0.34144,0.00206l-0.5063,0.50955c-0.07983-0.04805-0.16769-0.08492-0.25858-0.10727
				l-0.00498-1.12887c0-0.1331-0.10824-0.2409-0.2423-0.2397c-0.13146,0.00064-0.24123,0.10825-0.23863,0.24166l0.00262,1.12887
				c-0.09243,0.02288-0.17833,0.05975-0.25794,0.1078l-0.48287-0.47863c-0.09394-0.09458-0.24621-0.09405-0.34079,0
				c-0.09392,0.09478-0.09392,0.2475,0,0.34077l0.48353,0.48038c0.00109-0.00118,0.00109-0.00118,0.00109-0.00118
				c-0.04796,0.08026-0.08525,0.16811-0.10891,0.26225c0.00173-0.00076,0.00173-0.00129,0.00173-0.00129l-1.12973,0.00313
				c-0.13277,0-0.24014,0.10902-0.23861,0.24274c0,0.13277,0.1076,0.23992,0.24079,0.23937l1.12822-0.00498v-0.0012
				c0.02428,0.09274,0.06095,0.18059,0.10889,0.26043L24.321,53.7809c-0.09392,0.09416-0.09349,0.24925,0.00173,0.3421
				c0.0462,0.04663,0.10847,0.06973,0.17073,0.06973c0.06137-0.0014,0.12213-0.02428,0.16962-0.07104l0.5063-0.51032
				c0.07983,0.04796,0.16769,0.08363,0.25989,0.10662l0.00433,1.12867c0,0.13406,0.10889,0.24057,0.24057,0.23992
				c0.13363,0,0.24079-0.1076,0.24035-0.24101l-0.00324-1.13007c0.09218-0.02299,0.1807-0.06095,0.25987-0.10825h-0.00064
				l0.48156,0.47952c0.04729,0.04805,0.10913,0.07017,0.17073,0.07017c0.0616,0,0.12322-0.02419,0.17073-0.07159
				c0.09392-0.09467,0.09327-0.24577-0.00067-0.34057l-0.48351-0.47842c0,0,0,0.00064-0.00109,0.00064
				c0.04794-0.08014,0.08394-0.16755,0.1076-0.2604l1.12929-0.00444c0.13146-0.0012,0.24057-0.10836,0.23863-0.24232
				C27.98378,52.62795,27.87618,52.51948,27.74364,52.52079z M25.66723,53.14478c-0.20758,0.00064-0.37636-0.16693-0.37678-0.37355
				c-0.00196-0.20803,0.1668-0.37767,0.37549-0.37887c0.20674,0,0.3768,0.16693,0.3768,0.37573
				C26.04469,52.97545,25.87592,53.14423,25.66723,53.14478z"/>
		</g>
		<g>
			<path class="st4" d="M11.95139,62.90625l-0.7213,0.00187c0,0.00055,0,0.0013,0,0.0013
				c-0.01512-0.05897-0.03853-0.1151-0.06972-0.16605l0.32363-0.326c0.05974-0.06036,0.05974-0.15744-0.00041-0.21733
				c-0.06058-0.05974-0.15773-0.05926-0.21816,0.00132l-0.32351,0.32558c-0.05101-0.0307-0.10715-0.05426-0.16522-0.06854
				l-0.00318-0.7213c0-0.08504-0.06916-0.15393-0.15482-0.15316c-0.084,0.00041-0.15414,0.06916-0.15248,0.15441l0.00168,0.7213
				c-0.05906,0.01462-0.11394,0.03818-0.16481,0.06888l-0.30853-0.30582c-0.06002-0.06044-0.15732-0.06009-0.21775,0
				c-0.06001,0.06056-0.06001,0.15814,0,0.21774l0.30896,0.30694c0.0007-0.00075,0.0007-0.00075,0.0007-0.00075
				c-0.03064,0.05128-0.05447,0.10741-0.06959,0.16756c0.00111-0.00048,0.00111-0.00082,0.00111-0.00082l-0.72185,0.002
				c-0.08483,0-0.15344,0.06966-0.15246,0.1551c0,0.08484,0.06875,0.1533,0.15385,0.15295l0.72089-0.00318V63.2195
				c0.01551,0.05926,0.03895,0.11539,0.06958,0.1664l-0.32351,0.32551C9.70446,63.77157,9.70473,63.87067,9.76558,63.93
				c0.02952,0.02979,0.06931,0.04455,0.10909,0.04455c0.03922-0.00089,0.07803-0.01551,0.10838-0.04539l0.32351-0.32608
				c0.05101,0.03064,0.10715,0.05344,0.16606,0.06813l0.00277,0.72118c0,0.08566,0.06958,0.15371,0.15371,0.1533
				c0.08539,0,0.15386-0.06875,0.15357-0.15399l-0.00207-0.72207c0.0589-0.01469,0.11546-0.03894,0.16605-0.06916h-0.00041
				l0.3077,0.30639c0.03022,0.0307,0.06973,0.04483,0.10909,0.04483c0.03936,0,0.07873-0.01545,0.10909-0.04574
				c0.06001-0.06049,0.0596-0.15704-0.00043-0.21761l-0.30894-0.30569c0,0,0,0.00041-0.0007,0.00041
				c0.03063-0.05121,0.05364-0.10706,0.06875-0.16639l0.72157-0.00284c0.084-0.00077,0.15371-0.06924,0.15248-0.15483
				C12.10484,62.97472,12.03608,62.90541,11.95139,62.90625z M10.62465,63.30495c-0.13264,0.00041-0.24048-0.10666-0.24075-0.23869
				c-0.00125-0.13292,0.10658-0.24131,0.23992-0.24208c0.1321,0,0.24076,0.10666,0.24076,0.24008
				C10.86584,63.19676,10.758,63.3046,10.62465,63.30495z"/>
		</g>
		<g>
			<path class="st4" d="M9.58593,36.13015l-1.08195,0.00281c0,0.00083,0,0.00196,0,0.00196
				c-0.02267-0.08846-0.0578-0.17266-0.10458-0.24907l0.48545-0.48901c0.08961-0.09055,0.08961-0.23617-0.00062-0.32599
				c-0.09087-0.08961-0.23659-0.08889-0.32725,0.00198L8.07173,35.5612c-0.07652-0.04605-0.16072-0.08139-0.24784-0.10281
				l-0.00477-1.08195c0-0.12757-0.10375-0.23089-0.23223-0.22974c-0.12599,0.00062-0.23121,0.10374-0.22872,0.23161l0.00251,1.08195
				c-0.08859,0.02193-0.17092,0.05727-0.24722,0.10332l-0.4628-0.45873c-0.09003-0.09065-0.23598-0.09014-0.32663,0
				c-0.09001,0.09085-0.09001,0.23721,0,0.32661l0.46344,0.46041c0.00104-0.00113,0.00104-0.00113,0.00104-0.00113
				c-0.04596,0.07692-0.08171,0.16112-0.10438,0.25135c0.00166-0.00072,0.00166-0.00123,0.00166-0.00123l-1.08278,0.003
				c-0.12725,0-0.23016,0.10449-0.2287,0.23266c0,0.12725,0.10313,0.22995,0.23078,0.22942l1.08133-0.00477v-0.00115
				c0.02327,0.08889,0.05842,0.17309,0.10436,0.2496l-0.48526,0.48826c-0.09001,0.09025-0.08961,0.23889,0.00166,0.32788
				c0.04428,0.04469,0.10396,0.06683,0.16363,0.06683c0.05882-0.00134,0.11705-0.02327,0.16257-0.06808l0.48526-0.48911
				c0.07652,0.04596,0.16072,0.08015,0.24909,0.10219l0.00415,1.08176c0,0.12848,0.10436,0.23057,0.23057,0.22995
				c0.12808,0,0.23078-0.10313,0.23036-0.231l-0.00311-1.0831c0.08835-0.02203,0.17319-0.05842,0.24907-0.10374H8.07818
				l0.46154,0.45958c0.04533,0.04605,0.1046,0.06726,0.16363,0.06726c0.05904,0,0.1181-0.02319,0.16363-0.06862
				c0.09001-0.09074,0.0894-0.23555-0.00064-0.32642l-0.46342-0.45854c0,0,0,0.00062-0.00104,0.00062
				c0.04594-0.07681,0.08045-0.16059,0.10313-0.24958l1.08236-0.00426c0.12599-0.00115,0.23057-0.10385,0.22872-0.23225
				C9.81609,36.23286,9.71296,36.1289,9.58593,36.13015z M7.59581,36.72821c-0.19895,0.00062-0.36071-0.15999-0.36112-0.35803
				c-0.00187-0.19938,0.15987-0.36197,0.35988-0.36312c0.19814,0,0.36114,0.15999,0.36114,0.36012
				C7.95759,36.56591,7.79583,36.72768,7.59581,36.72821z"/>
		</g>
		<g>
			<path class="st4" d="M66.90609,54.8733l-0.73846,0.00192c0,0.00057,0,0.00134,0,0.00134
				c-0.01547-0.06038-0.03945-0.11784-0.07137-0.16999l0.33134-0.33376c0.06116-0.0618,0.06116-0.16119-0.00042-0.2225
				c-0.06202-0.06116-0.16148-0.06067-0.22336,0.00135l-0.33121,0.33333c-0.05222-0.03143-0.1097-0.05555-0.16915-0.07017
				l-0.00326-0.73846c0-0.08707-0.07081-0.15759-0.1585-0.1568c-0.086,0.00042-0.15781,0.07081-0.15611,0.15808l0.00172,0.73846
				c-0.06046,0.01497-0.11665,0.03909-0.16873,0.07052l-0.31588-0.3131c-0.06145-0.06187-0.16106-0.06152-0.22293,0
				c-0.06144,0.062-0.06144,0.16191,0,0.22292l0.31631,0.31425c0.00072-0.00077,0.00072-0.00077,0.00072-0.00077
				c-0.03137,0.0525-0.05577,0.10997-0.07124,0.17155c0.00113-0.00049,0.00113-0.00084,0.00113-0.00084l-0.73903,0.00205
				c-0.08685,0-0.1571,0.07132-0.1561,0.15879c0,0.08685,0.07039,0.15695,0.15752,0.15659l0.73804-0.00325V55.194
				c0.01588,0.06067,0.03987,0.11813,0.07124,0.17036l-0.33121,0.33325c-0.06144,0.0616-0.06116,0.16305,0.00113,0.22379
				c0.03023,0.0305,0.07096,0.04561,0.11169,0.04561c0.04015-0.00092,0.0799-0.01588,0.11096-0.04647l0.33121-0.33384
				c0.05222,0.03137,0.10969,0.05471,0.17001,0.06975l0.00284,0.73833c0,0.0877,0.07123,0.15737,0.15737,0.15695
				c0.08742,0,0.15752-0.07039,0.15723-0.15766l-0.00213-0.73925c0.06031-0.01504,0.11821-0.03988,0.17-0.07081h-0.00042
				l0.31502,0.31368c0.03094,0.03143,0.07139,0.0459,0.11169,0.0459c0.04029,0,0.0806-0.01582,0.11169-0.04683
				c0.06143-0.06193,0.06101-0.16077-0.00043-0.22279l-0.3163-0.31297c0,0,0,0.00042-0.00071,0.00042
				c0.03136-0.05243,0.05491-0.10961,0.07039-0.17035l0.73874-0.00291c0.08599-0.00079,0.15737-0.07088,0.15611-0.15852
				C67.06319,54.9434,66.9928,54.87244,66.90609,54.8733z M65.54778,55.28149c-0.1358,0.00042-0.2462-0.1092-0.24648-0.24437
				c-0.00128-0.13608,0.10911-0.24706,0.24563-0.24784c0.13524,0,0.24649,0.1092,0.24649,0.24579
				C65.79471,55.17072,65.6843,55.28113,65.54778,55.28149z"/>
		</g>
		<g>
			<path class="st4" d="M45.82514,60.55176l-0.73846,0.00192c0,0.00057,0,0.00134,0,0.00134
				c-0.01548-0.06038-0.03945-0.11785-0.07138-0.17l0.33134-0.33376c0.06116-0.0618,0.06116-0.16119-0.00042-0.2225
				c-0.06202-0.06116-0.16148-0.06067-0.22336,0.00135l-0.3312,0.33333c-0.05222-0.03143-0.1097-0.05555-0.16916-0.07017
				l-0.00325-0.73846c0-0.08707-0.07081-0.15759-0.1585-0.1568c-0.08599,0.00042-0.15781,0.07081-0.15611,0.15808l0.00172,0.73846
				c-0.06046,0.01497-0.11666,0.03909-0.16874,0.07052l-0.31587-0.3131c-0.06145-0.06187-0.16106-0.06152-0.22293,0
				c-0.06144,0.062-0.06144,0.16191,0,0.22292l0.31631,0.31425c0.00071-0.00077,0.00071-0.00077,0.00071-0.00077
				c-0.03137,0.0525-0.05577,0.10997-0.07124,0.17155c0.00113-0.00049,0.00113-0.00084,0.00113-0.00084l-0.73903,0.00205
				c-0.08685,0-0.15709,0.07132-0.15609,0.15879c0,0.08685,0.07038,0.15695,0.15751,0.15659l0.73804-0.00326v-0.00078
				c0.01588,0.06067,0.03988,0.11813,0.07123,0.17036l-0.33121,0.33325c-0.06144,0.0616-0.06116,0.16305,0.00114,0.22379
				c0.03022,0.0305,0.07095,0.04561,0.11168,0.04561c0.04015-0.00092,0.07989-0.01588,0.11096-0.04647l0.33121-0.33384
				c0.05222,0.03137,0.10969,0.05471,0.17001,0.06975l0.00283,0.73833c0,0.0877,0.07123,0.15737,0.15737,0.15695
				c0.08742,0,0.15752-0.07039,0.15723-0.15766l-0.00212-0.73925c0.0603-0.01504,0.11821-0.03988,0.17-0.07081h-0.00042
				l0.31502,0.31368c0.03094,0.03143,0.07139,0.0459,0.11169,0.0459c0.04029,0,0.0806-0.01582,0.11168-0.04683
				c0.06144-0.06193,0.06102-0.16077-0.00043-0.22279l-0.3163-0.31297c0,0,0,0.00042-0.00071,0.00042
				c0.03136-0.05243,0.05491-0.10961,0.07039-0.17035l0.73874-0.00291c0.08599-0.00079,0.15737-0.07088,0.15611-0.15852
				C45.98223,60.62186,45.91185,60.5509,45.82514,60.55176z M44.46683,60.95995c-0.13579,0.00042-0.2462-0.1092-0.24648-0.24437
				c-0.00128-0.13608,0.10911-0.24706,0.24563-0.24784c0.13524,0,0.24649,0.1092,0.24649,0.24579
				C44.71375,60.84918,44.60334,60.95959,44.46683,60.95995z"/>
		</g>
		<g>
			<path class="st4" d="M71.25637,66.18065l-0.45149,0.00117c0,0.00035,0,0.00082,0,0.00082
				c-0.00946-0.03691-0.02412-0.07204-0.04364-0.10394l0.20258-0.20406c0.03739-0.03779,0.03739-0.09856-0.00026-0.13604
				c-0.03792-0.03739-0.09873-0.03709-0.13656,0.00083l-0.2025,0.20379c-0.03193-0.01921-0.06706-0.03396-0.10342-0.0429
				l-0.00199-0.45149c0-0.05323-0.0433-0.09634-0.09691-0.09587c-0.05257,0.00026-0.09648,0.0433-0.09544,0.09666l0.00105,0.45149
				c-0.03696,0.00915-0.07132,0.0239-0.10316,0.04311l-0.19312-0.19143c-0.03757-0.03783-0.09847-0.03761-0.13631,0
				c-0.03756,0.03791-0.03756,0.09899,0,0.13629l0.19339,0.19213c0.00043-0.00047,0.00043-0.00047,0.00043-0.00047
				c-0.01918,0.0321-0.0341,0.06724-0.04356,0.10489c0.00069-0.00031,0.00069-0.00052,0.00069-0.00052l-0.45184,0.00126
				c-0.0531,0-0.09605,0.0436-0.09543,0.09708c0,0.0531,0.04303,0.09595,0.0963,0.09573l0.45124-0.00199v-0.00048
				c0.00971,0.03709,0.02438,0.07223,0.04355,0.10416l-0.2025,0.20374c-0.03756,0.03766-0.03739,0.09969,0.00069,0.13683
				c0.01848,0.01865,0.04338,0.02789,0.06828,0.02789c0.02455-0.00056,0.04885-0.00971,0.06784-0.02841l0.2025-0.20411
				c0.03193,0.01918,0.06706,0.03345,0.10394,0.04265l0.00173,0.45141c0,0.05362,0.04355,0.09621,0.09621,0.09596
				c0.05345,0,0.09631-0.04304,0.09613-0.0964l-0.0013-0.45197c0.03687-0.00919,0.07227-0.02438,0.10394-0.04329H70.6272
				l0.1926,0.19178c0.01892,0.01922,0.04365,0.02807,0.06829,0.02807c0.02464,0,0.04928-0.00968,0.06828-0.02864
				c0.03756-0.03786,0.0373-0.09829-0.00027-0.13621l-0.19338-0.19135c0,0,0,0.00025-0.00043,0.00025
				c0.01917-0.03205,0.03357-0.06701,0.04303-0.10415l0.45167-0.00177c0.05257-0.00048,0.09621-0.04334,0.09544-0.09692
				C71.35242,66.2235,71.30939,66.18012,71.25637,66.18065z M70.42591,66.43021c-0.08302,0.00025-0.15053-0.06676-0.1507-0.14941
				c-0.00078-0.0832,0.06671-0.15105,0.15018-0.15153c0.08269,0,0.1507,0.06676,0.1507,0.15028
				C70.57687,66.36249,70.50938,66.42999,70.42591,66.43021z"/>
		</g>
		<g>
			<path class="st4" d="M49.08165,45.54358l-1.18564,0.00308c0,0.00091,0,0.00214,0,0.00214
				c-0.02485-0.09694-0.06334-0.18921-0.1146-0.27294L48.31339,44.74c0.0982-0.09922,0.0982-0.2588-0.00068-0.35723
				c-0.09958-0.0982-0.25927-0.0974-0.35861,0.00217l-0.53176,0.53517c-0.08385-0.05046-0.17612-0.08919-0.27158-0.11266
				l-0.00523-1.18564c0-0.13979-0.11369-0.25301-0.25449-0.25175c-0.13807,0.00068-0.25336,0.11369-0.25064,0.25381l0.00275,1.18564
				c-0.09708,0.02403-0.18729,0.06276-0.27091,0.11322l-0.50715-0.50269c-0.09866-0.09934-0.25859-0.09878-0.35793,0
				c-0.09864,0.09955-0.09864,0.25994,0,0.35791l0.50785,0.50454c0.00114-0.00124,0.00114-0.00124,0.00114-0.00124
				c-0.05037,0.08429-0.08954,0.17656-0.11439,0.27543c0.00182-0.00079,0.00182-0.00135,0.00182-0.00135l-1.18655,0.00329
				c-0.13945,0-0.25222,0.11451-0.25061,0.25495c0,0.13945,0.11301,0.25199,0.2529,0.25141l1.18496-0.00523v-0.00126
				c0.0255,0.0974,0.06402,0.18967,0.11436,0.27353l-0.53176,0.53505c-0.09864,0.0989-0.0982,0.26179,0.00182,0.35931
				c0.04853,0.04897,0.11392,0.07323,0.17931,0.07323c0.06446-0.00147,0.12827-0.0255,0.17815-0.07461l0.53176-0.53599
				c0.08385,0.05037,0.17612,0.08784,0.27296,0.11199l0.00455,1.18542c0,0.1408,0.11436,0.25267,0.25267,0.25199
				c0.14035,0,0.2529-0.11301,0.25243-0.25313l-0.00341-1.1869c0.09682-0.02415,0.18979-0.06402,0.27294-0.11369h-0.00068
				l0.50578,0.50363c0.04967,0.05046,0.11462,0.0737,0.17931,0.0737c0.0647,0,0.12941-0.02541,0.17932-0.07519
				c0.09864-0.09943,0.09796-0.25813-0.0007-0.3577l-0.50782-0.50248c0,0,0,0.00068-0.00114,0.00068
				c0.05035-0.08418,0.08817-0.17598,0.11301-0.2735l1.18608-0.00467c0.13807-0.00126,0.25267-0.1138,0.25064-0.25451
				C49.33387,45.65613,49.22086,45.54221,49.08165,45.54358z M46.90081,46.19895c-0.21802,0.00068-0.39528-0.17533-0.39573-0.39234
				c-0.00205-0.21849,0.17519-0.39666,0.39437-0.39792c0.21713,0,0.39575,0.17532,0.39575,0.39463
				C47.29726,46.02111,47.12,46.19837,46.90081,46.19895z"/>
		</g>
		<g>
			<path class="st4" d="M11.01429,44.90958l-0.34262,0.00089c0,0.00026,0,0.00062,0,0.00062
				c-0.00718-0.02801-0.0183-0.05468-0.03312-0.07887l0.15373-0.15485c0.02838-0.02868,0.02838-0.07479-0.0002-0.10323
				c-0.02877-0.02838-0.07492-0.02815-0.10363,0.00063l-0.15367,0.15465c-0.02423-0.01458-0.05089-0.02578-0.07848-0.03256
				l-0.00151-0.34262c0-0.0404-0.03285-0.07312-0.07354-0.07275c-0.0399,0.00019-0.07322,0.03285-0.07243,0.07335l0.0008,0.34262
				c-0.02805,0.00694-0.05412,0.01814-0.07829,0.03272l-0.14655-0.14527c-0.02851-0.02871-0.07473-0.02855-0.10343,0
				c-0.0285,0.02877-0.0285,0.07512,0,0.10343l0.14676,0.1458c0.00033-0.00036,0.00033-0.00036,0.00033-0.00036
				c-0.01456,0.02436-0.02588,0.05102-0.03306,0.07959c0.00053-0.00023,0.00053-0.00039,0.00053-0.00039l-0.34288,0.00095
				c-0.0403,0-0.07289,0.03309-0.07242,0.07367c0,0.04029,0.03266,0.07282,0.07308,0.07265l0.34242-0.00151v-0.00037
				c0.00737,0.02815,0.0185,0.05481,0.03305,0.07904L9.9755,45.29203c-0.0285,0.02858-0.02838,0.07565,0.00053,0.10383
				c0.01402,0.01415,0.03292,0.02116,0.05182,0.02116c0.01863-0.00042,0.03707-0.00737,0.05148-0.02156l0.15367-0.15488
				c0.02423,0.01455,0.05089,0.02538,0.07888,0.03236l0.00132,0.34256c0,0.04069,0.03305,0.07301,0.07301,0.07282
				c0.04056,0,0.07308-0.03266,0.07295-0.07315l-0.00098-0.34298c0.02798-0.00698,0.05484-0.0185,0.07887-0.03285h-0.0002
				l0.14616,0.14553c0.01435,0.01458,0.03312,0.0213,0.05182,0.0213c0.01869,0,0.0374-0.00734,0.05182-0.02173
				c0.0285-0.02873,0.02831-0.07459-0.0002-0.10337l-0.14675-0.1452c0,0,0,0.00019-0.00033,0.00019
				c0.01455-0.02432,0.02548-0.05085,0.03266-0.07903l0.34275-0.00135c0.0399-0.00036,0.07301-0.03289,0.07243-0.07354
				C11.08717,44.94211,11.05452,44.90919,11.01429,44.90958z M10.38409,45.09897c-0.063,0.00019-0.11423-0.05066-0.11436-0.11338
				c-0.00059-0.06314,0.05062-0.11462,0.11396-0.11499c0.06275,0,0.11436,0.05066,0.11436,0.11404
				C10.49865,45.04758,10.44742,45.0988,10.38409,45.09897z"/>
		</g>
		<g>
			<path class="st4" d="M33.86821,73.47692l-0.46434,0.00121c0,0.00036,0,0.00084,0,0.00084
				c-0.00973-0.03796-0.02481-0.0741-0.04488-0.1069l0.20834-0.20986c0.03846-0.03886,0.03846-0.10136-0.00027-0.13991
				c-0.039-0.03845-0.10154-0.03815-0.14044,0.00085l-0.20826,0.20959c-0.03284-0.01976-0.06897-0.03493-0.10636-0.04412
				l-0.00205-0.46433c0-0.05475-0.04452-0.09909-0.09966-0.0986c-0.05407,0.00027-0.09923,0.04453-0.09816,0.0994l0.00108,0.46434
				c-0.03802,0.00941-0.07335,0.02457-0.1061,0.04433L32.6085,73.0369c-0.03864-0.0389-0.10128-0.03869-0.14018,0
				c-0.03863,0.03899-0.03863,0.10181,0,0.14017l0.19889,0.19759c0.00045-0.00048,0.00045-0.00048,0.00045-0.00048
				c-0.01973,0.03301-0.03506,0.06915-0.0448,0.10787c0.00071-0.00031,0.00071-0.00053,0.00071-0.00053l-0.46469,0.00129
				c-0.05461,0-0.09878,0.04485-0.09815,0.09985c0,0.05461,0.04426,0.09869,0.09904,0.09846l0.46407-0.00205v-0.00049
				c0.00998,0.03815,0.02507,0.07428,0.04479,0.10712l-0.20826,0.20955c-0.03863,0.03873-0.03846,0.10252,0.00071,0.14072
				c0.019,0.01918,0.04462,0.02868,0.07022,0.02868c0.02525-0.00057,0.05024-0.00999,0.06977-0.02922l0.20826-0.20991
				c0.03284,0.01972,0.06897,0.0344,0.1069,0.04385l0.00178,0.46426c0,0.05514,0.04479,0.09895,0.09895,0.09869
				c0.05497,0,0.09904-0.04426,0.09886-0.09914l-0.00134-0.46483c0.03792-0.00945,0.07433-0.02507,0.10689-0.04453h-0.00026
				l0.19808,0.19724c0.01945,0.01976,0.04489,0.02886,0.07023,0.02886c0.02533,0,0.05068-0.00995,0.07022-0.02945
				c0.03863-0.03894,0.03836-0.10109-0.00027-0.14009l-0.19888-0.19678c0,0,0,0.00026-0.00045,0.00026
				c0.01972-0.03296,0.03453-0.06892,0.04426-0.10711l0.46451-0.00182c0.05407-0.0005,0.09895-0.04457,0.09816-0.09968
				C33.96699,73.521,33.92273,73.47638,33.86821,73.47692z M33.01412,73.73358c-0.08538,0.00027-0.1548-0.06866-0.15498-0.15366
				c-0.0008-0.08556,0.06861-0.15534,0.15445-0.15584c0.08504,0,0.15499,0.06866,0.15499,0.15456
				C33.16938,73.66393,33.09996,73.73335,33.01412,73.73358z"/>
		</g>
		<g>
			<path class="st4" d="M48.1394,69.08035l-0.57025,0.00148c0,0.00043,0,0.00103,0,0.00103
				c-0.01195-0.04662-0.03046-0.091-0.05512-0.13127l0.25586-0.25774c0.04723-0.04772,0.04723-0.12447-0.00033-0.17181
				c-0.04789-0.04723-0.1247-0.04685-0.17248,0.00105l-0.25576,0.25739c-0.04033-0.02427-0.08471-0.04289-0.13062-0.05418
				l-0.00251-0.57025c0-0.06724-0.05468-0.12169-0.1224-0.12109c-0.06641,0.00033-0.12186,0.05468-0.12055,0.12207l0.00132,0.57025
				c-0.04669,0.01156-0.09008,0.03019-0.13029,0.05446l-0.24392-0.24178c-0.04745-0.04778-0.12437-0.04752-0.17215,0
				c-0.04744,0.04787-0.04744,0.12502,0,0.17213l0.24426,0.24267c0.00055-0.0006,0.00055-0.0006,0.00055-0.0006
				c-0.02423,0.04054-0.04306,0.08492-0.05502,0.13248c0.00087-0.00038,0.00087-0.00065,0.00087-0.00065l-0.57069,0.00158
				c-0.06707,0-0.12131,0.05507-0.12054,0.12262c0,0.06707,0.05436,0.1212,0.12164,0.12092l0.56993-0.00251v-0.00061
				c0.01226,0.04685,0.03079,0.09123,0.055,0.13156l-0.25576,0.25734c-0.04744,0.04756-0.04723,0.12591,0.00087,0.17281
				c0.02334,0.02355,0.05479,0.03522,0.08625,0.03522c0.031-0.00071,0.06169-0.01227,0.08568-0.03589l0.25576-0.25779
				c0.04033,0.02422,0.08471,0.04225,0.13129,0.05386l0.00219,0.57014c0,0.06772,0.055,0.12153,0.12152,0.1212
				c0.0675,0,0.12164-0.05435,0.12141-0.12175l-0.00164-0.57085c0.04657-0.01161,0.09128-0.03079,0.13128-0.05468h-0.00032
				l0.24326,0.24223c0.02389,0.02428,0.05513,0.03545,0.08624,0.03545s0.06224-0.01221,0.08625-0.03616
				c0.04744-0.04782,0.04712-0.12415-0.00034-0.17204l-0.24425-0.24168c0,0,0,0.00033-0.00055,0.00033
				c0.02422-0.04049,0.0424-0.08464,0.05436-0.13155l0.57047-0.00224c0.06641-0.0006,0.12152-0.05473,0.12054-0.12241
				C48.26071,69.13448,48.20636,69.07968,48.1394,69.08035z M47.0905,69.39555c-0.10486,0.00032-0.19012-0.08433-0.19033-0.18871
				c-0.00099-0.10509,0.08426-0.19078,0.18968-0.19138c0.10443,0,0.19034,0.08433,0.19034,0.1898
				C47.28117,69.31001,47.19592,69.39527,47.0905,69.39555z"/>
		</g>
		<g>
			<path class="st4" d="M24.89499,63.99567l-0.57025,0.00148c0,0.00044,0,0.00103,0,0.00103
				c-0.01195-0.04662-0.03047-0.091-0.05512-0.13128l0.25586-0.25773c0.04723-0.04773,0.04723-0.12448-0.00032-0.17182
				c-0.04789-0.04723-0.1247-0.04685-0.17248,0.00105l-0.25576,0.2574c-0.04033-0.02427-0.08471-0.0429-0.13062-0.05419
				l-0.00251-0.57025c0-0.06724-0.05468-0.12169-0.1224-0.12109c-0.0664,0.00032-0.12186,0.05468-0.12055,0.12207l0.00132,0.57025
				c-0.04669,0.01156-0.09008,0.03019-0.1303,0.05445l-0.24392-0.24178c-0.04745-0.04778-0.12437-0.04751-0.17215,0
				c-0.04744,0.04788-0.04744,0.12502,0,0.17214l0.24426,0.24267c0.00055-0.0006,0.00055-0.0006,0.00055-0.0006
				c-0.02423,0.04054-0.04307,0.08492-0.05502,0.13248c0.00088-0.00038,0.00088-0.00066,0.00088-0.00066l-0.57069,0.00159
				c-0.06707,0-0.12131,0.05507-0.12054,0.12262c0,0.06707,0.05436,0.1212,0.12164,0.12092l0.56993-0.00251v-0.00061
				c0.01227,0.04685,0.03079,0.09122,0.05501,0.13155l-0.25576,0.25735c-0.04744,0.04756-0.04723,0.12591,0.00088,0.17281
				c0.02334,0.02355,0.05479,0.03522,0.08624,0.03522c0.031-0.00071,0.06169-0.01227,0.08568-0.03589l0.25576-0.25779
				c0.04033,0.02422,0.08471,0.04224,0.13128,0.05386l0.00219,0.57014c0,0.06772,0.05501,0.12153,0.12152,0.1212
				c0.0675,0,0.12164-0.05435,0.12141-0.12175l-0.00164-0.57085c0.04657-0.01161,0.09128-0.03079,0.13128-0.05468h-0.00033
				l0.24326,0.24223c0.02389,0.02427,0.05513,0.03545,0.08624,0.03545c0.03112,0,0.06224-0.01221,0.08624-0.03616
				c0.04744-0.04782,0.04712-0.12415-0.00034-0.17204l-0.24425-0.24168c0,0,0,0.00033-0.00055,0.00033
				c0.02421-0.04049,0.0424-0.08464,0.05435-0.13155l0.57047-0.00224c0.0664-0.00061,0.12152-0.05473,0.12055-0.12241
				C25.01629,64.0498,24.96194,63.99501,24.89499,63.99567z M23.84608,64.31088c-0.10486,0.00032-0.19012-0.08433-0.19033-0.18871
				c-0.00099-0.10509,0.08426-0.19078,0.18968-0.19139c0.10443,0,0.19034,0.08432,0.19034,0.18981
				C24.03676,64.22534,23.9515,64.3106,23.84608,64.31088z"/>
		</g>
		<g>
			<path class="st4" d="M21.49217,31.29391l-0.57025,0.00148c0,0.00044,0,0.00103,0,0.00103
				c-0.01195-0.04662-0.03047-0.091-0.05512-0.13128l0.25586-0.25773c0.04723-0.04772,0.04723-0.12447-0.00033-0.17182
				c-0.04789-0.04723-0.1247-0.04685-0.17248,0.00104l-0.25576,0.2574c-0.04033-0.02427-0.08471-0.0429-0.13062-0.05419
				l-0.00251-0.57025c0-0.06724-0.05468-0.12169-0.1224-0.12109c-0.06641,0.00033-0.12186,0.05468-0.12055,0.12207l0.00132,0.57025
				c-0.04669,0.01156-0.09008,0.03018-0.1303,0.05445l-0.24392-0.24178c-0.04745-0.04778-0.12437-0.04751-0.17215,0
				c-0.04744,0.04788-0.04744,0.12502,0,0.17214l0.24426,0.24266c0.00055-0.0006,0.00055-0.0006,0.00055-0.0006
				c-0.02423,0.04054-0.04307,0.08492-0.05502,0.13248c0.00088-0.00038,0.00088-0.00065,0.00088-0.00065l-0.57069,0.00158
				c-0.06707,0-0.12131,0.05507-0.12054,0.12262c0,0.06707,0.05435,0.1212,0.12164,0.12092l0.56993-0.00251v-0.0006
				c0.01226,0.04685,0.03079,0.09123,0.05501,0.13155l-0.25576,0.25734c-0.04744,0.04757-0.04723,0.12591,0.00088,0.17282
				c0.02334,0.02355,0.05479,0.03522,0.08624,0.03522c0.031-0.00071,0.06169-0.01226,0.08568-0.03588l0.25576-0.25779
				c0.04033,0.02423,0.08471,0.04225,0.13128,0.05386l0.00219,0.57015c0,0.06772,0.05501,0.12152,0.12152,0.1212
				c0.06751,0,0.12164-0.05436,0.12141-0.12175l-0.00164-0.57086c0.04657-0.01161,0.09128-0.03079,0.13128-0.05468H20.6975
				l0.24326,0.24223c0.02389,0.02427,0.05513,0.03545,0.08624,0.03545c0.03112,0,0.06224-0.01222,0.08624-0.03616
				c0.04744-0.04782,0.04712-0.12415-0.00034-0.17204l-0.24425-0.24168c0,0,0,0.00033-0.00055,0.00033
				c0.02422-0.04049,0.0424-0.08464,0.05436-0.13154l0.57046-0.00224c0.06641-0.00061,0.12152-0.05474,0.12055-0.12241
				C21.61348,31.34804,21.55912,31.29325,21.49217,31.29391z M20.44326,31.60912c-0.10486,0.00033-0.19012-0.08433-0.19033-0.1887
				c-0.00099-0.10508,0.08426-0.19078,0.18968-0.19139c0.10443,0,0.19034,0.08433,0.19034,0.1898
				C20.63394,31.52358,20.54868,31.60884,20.44326,31.60912z"/>
		</g>
		<g>
			<path class="st4" d="M56.43261,58.47211l-0.57025,0.00148c0,0.00043,0,0.00103,0,0.00103
				c-0.01195-0.04662-0.03046-0.091-0.05512-0.13127l0.25586-0.25774c0.04723-0.04772,0.04723-0.12447-0.00033-0.17182
				c-0.04789-0.04723-0.1247-0.04684-0.17248,0.00105l-0.25576,0.2574c-0.04033-0.02427-0.08471-0.0429-0.13062-0.05418
				L55.5014,57.5478c0-0.06724-0.05468-0.12169-0.1224-0.12109c-0.06641,0.00032-0.12186,0.05468-0.12054,0.12207l0.00132,0.57025
				c-0.04669,0.01155-0.09008,0.03018-0.1303,0.05445l-0.24392-0.24178c-0.04745-0.04778-0.12437-0.04751-0.17215,0
				c-0.04744,0.04788-0.04744,0.12502,0,0.17214l0.24426,0.24266c0.00055-0.0006,0.00055-0.0006,0.00055-0.0006
				c-0.02422,0.04054-0.04306,0.08492-0.05502,0.13248c0.00088-0.00038,0.00088-0.00065,0.00088-0.00065l-0.57069,0.00158
				c-0.06707,0-0.12131,0.05507-0.12054,0.12262c0,0.06707,0.05436,0.1212,0.12164,0.12091l0.56993-0.00251v-0.00061
				c0.01226,0.04685,0.03079,0.09122,0.055,0.13155l-0.25576,0.25734c-0.04744,0.04757-0.04723,0.12591,0.00088,0.17281
				c0.02334,0.02355,0.05479,0.03522,0.08624,0.03522c0.03101-0.00071,0.0617-0.01226,0.08569-0.03588l0.25576-0.25779
				c0.04033,0.02423,0.08471,0.04225,0.13129,0.05386l0.00219,0.57015c0,0.06772,0.055,0.12152,0.12152,0.1212
				c0.06751,0,0.12164-0.05436,0.12141-0.12175l-0.00164-0.57086c0.04657-0.01162,0.09128-0.03079,0.13128-0.05468h-0.00032
				l0.24326,0.24223c0.02389,0.02427,0.05513,0.03545,0.08624,0.03545s0.06224-0.01222,0.08625-0.03617
				c0.04744-0.04782,0.04712-0.12415-0.00034-0.17204l-0.24425-0.24168c0,0,0,0.00033-0.00055,0.00033
				c0.02422-0.04049,0.0424-0.08464,0.05436-0.13155l0.57047-0.00224c0.06641-0.00061,0.12152-0.05474,0.12055-0.12241
				C56.55392,58.52624,56.49956,58.47145,56.43261,58.47211z M55.3837,58.78732c-0.10486,0.00032-0.19012-0.08433-0.19033-0.18871
				c-0.00099-0.10508,0.08426-0.19078,0.18968-0.19138c0.10443,0,0.19034,0.08432,0.19034,0.1898
				C55.57438,58.70178,55.48912,58.78704,55.3837,58.78732z"/>
		</g>
	</g>
	<path class="st5" d="M73.58514,35.79858c0,5.11005-4.14001,9.23999-9.23999,9.23999H29.8352
		c-5.1001,0-9.23999-4.12994-9.23999-9.23999c0-4.47998,3.18994-8.20996,7.41992-9.04999
		c-0.03003-0.27997-0.04004-0.56-0.04004-0.84998c0-4.95001,4.01001-8.96002,8.95996-8.96002
		c1.42017,0,2.76001,0.33002,3.95007,0.91003c2.44006-3.68005,6.62-6.10004,11.35999-6.10004
		c7.53003,0,13.64002,6.10998,13.64002,13.64001c0,0.44-0.02002,0.87-0.06,1.29999
		C70.22516,27.38861,73.58514,31.1986,73.58514,35.79858z"/>
	<path class="st3" d="M30.41554,25.74748c0,2.79479-2.26426,5.05355-5.05355,5.05355H6.48776
		c-2.78935,0-5.05355-2.25875-5.05355-5.05355c0-2.4502,1.74465-4.49021,4.05812-4.94963
		c-0.01642-0.15312-0.0219-0.30627-0.0219-0.46487c0-2.70727,2.19316-4.90043,4.9004-4.90043
		c0.77672,0,1.50951,0.18049,2.16038,0.49772c1.33452-2.0127,3.62062-3.33624,6.21302-3.33624
		c4.11833,0,7.46002,3.34168,7.46002,7.46002c0,0.24065-0.01095,0.47582-0.03281,0.71099
		C28.57789,21.14788,30.41554,23.23165,30.41554,25.74748z"/>
</g>
</svg>
