<?xml version="1.0" encoding="utf-8"?>
<!-- Generator: Adobe Illustrator 22.1.0, SVG Export Plug-In . SVG Version: 6.00 Build 0)  -->
<svg version="1.1" id="Layer_2" xmlns="http://www.w3.org/2000/svg" xmlns:xlink="http://www.w3.org/1999/xlink" x="0px" y="0px"
	 viewBox="0 0 56 69" style="enable-background:new 0 0 56 69;" xml:space="preserve">
<style type="text/css">
	.st0{fill:#FDB813;}
	.st1{fill:#F5A714;}
	.st2{fill:#5086FF;}
	.st3{fill:#838A96;}
</style>
<g>
	<circle class="st0" cx="28.72023" cy="18.00265" r="16.45013"/>
	<g>
		<path class="st1" d="M30.06281,50.85667L21.909,50.48264l7.15527-17.21191c0.31787-0.76367,1.19678-1.12598,1.96094-0.80859
			c0.76514,0.31738,1.12744,1.19531,0.80957,1.96094l-5.5127,13.25879l8.20556,0.37598L24.3968,67.44749L30.06281,50.85667z"/>
		<path class="st1" d="M24.3968,67.44749"/>
	</g>
	<g>
		<path class="st2" d="M20.62722,49.434c0.00981,0.04003,0.00956,0.09002,0.00936,0.13005
			c-0.0057,1.13994-0.93039,2.06538-2.0804,2.05962c-1.14-0.0057-2.06539-0.9404-2.05968-2.08034
			c0.0002-0.04004,0.00045-0.09002,0.01066-0.12995l-0.01001-0.00005l0.01011-0.01997l0.37542-1.05813l1.09515-3.03453
			l0.03048-0.08988c0.09117-0.23954,0.31198-0.40842,0.582-0.40706c0.27002,0.00135,0.48913,0.17243,0.57802,0.41287
			l0.02946,0.09018l1.06473,3.04535l0.36481,1.06184l0.00991,0.02007L20.62722,49.434z"/>
		<path class="st2" d="M39.41539,49.498c0.00981,0.04003,0.00956,0.09002,0.00936,0.13005
			c-0.0057,1.13994-0.93039,2.06538-2.0804,2.05962c-1.14-0.0057-2.06539-0.9404-2.05968-2.08034
			c0.0002-0.04004,0.00045-0.09003,0.01066-0.12996l-0.01001-0.00005l0.01011-0.01997l0.37542-1.05813l1.09515-3.03453
			l0.03048-0.08987c0.09117-0.23954,0.31199-0.40842,0.582-0.40707s0.48913,0.17243,0.57802,0.41287l0.02946,0.09018
			l1.06473,3.04535l0.36481,1.06184l0.00991,0.02007L39.41539,49.498z"/>
	</g>
	<path class="st3" d="M54.49463,33.72553c-0.02557,5.10999-4.1862,9.21916-9.28611,9.19364L10.699,42.74647
		c-5.10003-0.02552-9.21921-4.17613-9.19363-9.28611c0.02242-4.47992,3.23099-8.19389,7.46512-9.01274
		c-0.02863-0.28012-0.03724-0.56019-0.03578-0.85016c0.02477-4.94995,4.0548-8.93984,9.00469-8.91507
		c1.42015,0.00711,2.75832,0.34383,3.94547,0.92979c2.45845-3.6678,6.65044-6.06683,11.39037-6.04311
		c7.52993,0.03768,13.60927,6.17817,13.57159,13.7081c-0.0022,0.44-0.02438,0.86988-0.06651,1.29967
		C51.17678,25.29885,54.51765,29.12562,54.49463,33.72553z"/>
</g>
</svg>
