<?xml version="1.0" encoding="utf-8"?>
<!-- Generator: Adobe Illustrator 22.1.0, SVG Export Plug-In . SVG Version: 6.00 Build 0)  -->
<svg version="1.1" id="Layer_2" xmlns="http://www.w3.org/2000/svg" xmlns:xlink="http://www.w3.org/1999/xlink" x="0px" y="0px"
	 viewBox="0 0 56 69" style="enable-background:new 0 0 56 69;" xml:space="preserve">
<style type="text/css">
	.st0{fill:#FFC655;}
	.st1{fill:#272A33;}
	.st2{fill:#F5A714;}
	.st3{fill:#5086FF;}
	.st4{fill:#838A96;}
</style>
<g>
	<g>
		<path class="st0" d="M43.97531,23.99258c-2.39001,6.13-8.34998,10.46002-15.32007,10.46002
			c-9.08997,0-16.44995-7.36004-16.44995-16.45001c0-6.02002,3.22998-11.28998,8.06006-14.15003
			c-0.72998,1.86005-1.13013,3.88-1.13013,5.98999c0,9.08002,7.37012,16.45001,16.45007,16.45001
			C38.64523,26.29257,41.52536,25.4526,43.97531,23.99258z"/>
		<path class="st1" d="M45.10531,18.00259c0,2.10999-0.40002,4.13-1.13,5.98999c-2.44995,1.46002-5.33008,2.29999-8.39001,2.29999
			c-9.07996,0-16.45007-7.37-16.45007-16.45001c0-2.10999,0.40015-4.12994,1.13013-5.98999
			c2.44995-1.45996,5.31995-2.29999,8.38989-2.29999C37.74533,1.55258,45.10531,8.92257,45.10531,18.00259z"/>
	</g>
	<g>
		<path class="st2" d="M30.06281,50.85661L21.909,50.48258l7.15527-17.21191c0.31787-0.76367,1.19678-1.12598,1.96094-0.80859
			c0.76514,0.31738,1.12744,1.19531,0.80957,1.96094l-5.5127,13.25879l8.20556,0.37598L24.3968,67.44743L30.06281,50.85661z"/>
		<path class="st2" d="M24.3968,67.44743"/>
	</g>
	<g>
		<path class="st3" d="M20.62722,49.43394c0.00981,0.04003,0.00956,0.09002,0.00936,0.13005
			c-0.0057,1.13994-0.93039,2.06538-2.0804,2.05962c-1.14-0.0057-2.06539-0.9404-2.05968-2.08034
			c0.0002-0.04004,0.00045-0.09002,0.01066-0.12995l-0.01001-0.00005l0.01011-0.01997l0.37542-1.05813l1.09515-3.03453
			l0.03048-0.08988c0.09117-0.23954,0.31198-0.40842,0.582-0.40706c0.27002,0.00135,0.48913,0.17243,0.57802,0.41287
			l0.02946,0.09018l1.06473,3.04535l0.36481,1.06184l0.00991,0.02007L20.62722,49.43394z"/>
		<path class="st3" d="M39.41539,49.49794c0.00981,0.04003,0.00956,0.09002,0.00936,0.13005
			c-0.0057,1.13994-0.93039,2.06538-2.0804,2.05962c-1.14-0.0057-2.06539-0.9404-2.05968-2.08034
			c0.0002-0.04004,0.00045-0.09003,0.01066-0.12996l-0.01001-0.00005l0.01011-0.01997l0.37542-1.05813l1.09515-3.03453
			l0.03048-0.08987c0.09117-0.23954,0.31199-0.40842,0.582-0.40707s0.48913,0.17243,0.57802,0.41287l0.02946,0.09018
			l1.06473,3.04535l0.36481,1.06184l0.00991,0.02007L39.41539,49.49794z"/>
	</g>
	<path class="st4" d="M54.49463,33.72547c-0.02557,5.10999-4.1862,9.21916-9.28611,9.19364L10.699,42.74641
		c-5.10003-0.02552-9.21921-4.17613-9.19363-9.28611c0.02242-4.47992,3.23099-8.19389,7.46512-9.01274
		c-0.02863-0.28011-0.03724-0.56019-0.03578-0.85016c0.02477-4.94995,4.0548-8.93984,9.00469-8.91507
		c1.42015,0.00711,2.75832,0.34382,3.94547,0.92979c2.45845-3.6678,6.65044-6.06683,11.39037-6.04311
		c7.52993,0.03768,13.60927,6.17817,13.57159,13.7081c-0.0022,0.44-0.02438,0.86988-0.06651,1.29967
		C51.17678,25.29879,54.51765,29.12556,54.49463,33.72547z"/>
</g>
</svg>
