<?xml version="1.0" encoding="utf-8"?>
<!-- Generator: Adobe Illustrator 22.1.0, SVG Export Plug-In . SVG Version: 6.00 Build 0)  -->
<svg version="1.1" id="Layer_2" xmlns="http://www.w3.org/2000/svg" xmlns:xlink="http://www.w3.org/1999/xlink" x="0px" y="0px"
	 viewBox="0 0 76 77" style="enable-background:new 0 0 76 77;" xml:space="preserve">
<style type="text/css">
	.st0{fill:#F5A714;}
	.st1{fill:#FDB813;}
	.st2{fill:#838A96;}
	.st3{fill:#2E323A;}
	.st4{fill:#5086FF;}
</style>
<g>
	<g>
		<g>
			<path class="st0" d="M34.70361,59.41248l-8.15381-0.37402l7.15527-17.21191c0.31787-0.76367,1.19678-1.12598,1.96094-0.80859
				c0.76514,0.31738,1.12744,1.19531,0.80957,1.96094l-5.51269,13.25879l8.20556,0.37598L29.0376,76.0033L34.70361,59.41248z"/>
			<path class="st0" d="M29.0376,76.0033"/>
		</g>
		<g>
			<path class="st0" d="M53.02699,51.18968l-8.15381-0.37402l7.15527-17.21191c0.31787-0.76367,1.19678-1.12598,1.96094-0.80859
				c0.76514,0.31738,1.12744,1.19531,0.80957,1.96094l-5.5127,13.25879l8.20557,0.37598L47.36098,67.7805L53.02699,51.18968z"/>
			<path class="st0" d="M47.36098,67.7805"/>
		</g>
	</g>
	<circle class="st1" cx="34.73238" cy="19.73718" r="16.45013"/>
	<path class="st2" d="M51.25811,12.62439c0,2.4699-2.00105,4.46608-4.46609,4.46608H30.11188
		c-2.4651,0-4.46609-1.99618-4.46609-4.46608c0-2.16537,1.54184-3.96823,3.58637-4.37425
		c-0.01451-0.13532-0.01935-0.27067-0.01935-0.41083c0-2.39255,1.93821-4.33076,4.33073-4.33076
		c0.68643,0,1.33403,0.15951,1.90924,0.43986C36.63217,2.16968,38.65251,1,40.94355,1c3.63959,0,6.5928,2.95322,6.5928,6.5928
		c0,0.21267-0.00968,0.42051-0.029,0.62834C49.63408,8.55949,51.25811,10.40103,51.25811,12.62439z"/>
	<path class="st3" d="M73.58514,35.33088c0,5.11005-4.14001,9.23999-9.23999,9.23999H29.8352
		c-5.1001,0-9.23999-4.12994-9.23999-9.23999c0-4.47998,3.18994-8.20996,7.41992-9.04999
		c-0.03003-0.27997-0.04004-0.56-0.04004-0.84998c0-4.95001,4.01001-8.96002,8.95996-8.96002
		c1.42017,0,2.76001,0.33002,3.95007,0.91003c2.44006-3.68005,6.62-6.10004,11.35999-6.10004
		c7.53003,0,13.64002,6.10999,13.64002,13.64002c0,0.44-0.02002,0.87-0.06,1.29999
		C70.22516,26.92091,73.58514,30.73091,73.58514,35.33088z"/>
	<g>
		<path class="st4" d="M42.58505,51.19362c0.01001,0.03998,0.01001,0.08997,0.01001,0.13c0,1.13995-0.92004,2.07001-2.07007,2.07001
			c-1.14001,0-2.07007-0.93005-2.07007-2.07001c0-0.04004,0-0.09003,0.01001-0.13h-0.01001l0.01001-0.02002l0.37012-1.06
			l1.07996-3.03998l0.03003-0.09003c0.08997-0.23999,0.30994-0.40997,0.57996-0.40997s0.48999,0.16998,0.58008,0.40997
			l0.02991,0.09003l1.07996,3.03998l0.37012,1.06l0.01001,0.02002H42.58505z"/>
		<path class="st4" d="M17.0084,51.19362c0.01001,0.03998,0.01001,0.08997,0.01001,0.13c0,1.13995-0.92004,2.07001-2.07007,2.07001
			c-1.14001,0-2.07007-0.93005-2.07007-2.07001c0-0.04004,0-0.09003,0.01001-0.13h-0.01001l0.01001-0.02002l0.37012-1.06
			l1.07996-3.03998l0.03003-0.09003c0.08997-0.23999,0.30994-0.40997,0.57996-0.40997s0.48999,0.16998,0.58008,0.40997
			l0.02991,0.09003l1.07996,3.03998l0.37012,1.06l0.01001,0.02002H17.0084z"/>
		<path class="st4" d="M23.40253,59.94029c0.01001,0.03998,0.01001,0.08997,0.01001,0.13c0,1.13995-0.92004,2.07001-2.07007,2.07001
			c-1.14001,0-2.07007-0.93005-2.07007-2.07001c0-0.04004,0-0.09003,0.01001-0.13H19.2724l0.01001-0.02002l0.37012-1.06
			l1.07996-3.03998l0.03003-0.09003c0.08997-0.23999,0.30994-0.40997,0.57996-0.40997s0.48999,0.16998,0.58008,0.40997
			l0.02991,0.09003l1.07996,3.03998l0.37012,1.06l0.01001,0.02002H23.40253z"/>
		<path class="st4" d="M42.58501,68.68695c0.01001,0.03998,0.01001,0.08997,0.01001,0.13c0,1.13995-0.92004,2.07001-2.07007,2.07001
			c-1.14001,0-2.07007-0.93005-2.07007-2.07001c0-0.04004,0-0.09003,0.01001-0.13h-0.01001l0.01001-0.02002l0.37012-1.06
			l1.07996-3.03998l0.03003-0.09003c0.08997-0.23999,0.30994-0.40997,0.57996-0.40997s0.48999,0.16998,0.58008,0.40997
			l0.02991,0.09003l1.07996,3.03998l0.37012,1.06l0.01001,0.02002H42.58501z"/>
		<path class="st4" d="M10.61424,59.94029c0.01001,0.03998,0.01001,0.08997,0.01001,0.13c0,1.13995-0.92004,2.07001-2.07007,2.07001
			c-1.14001,0-2.07007-0.93005-2.07007-2.07001c0-0.04004,0-0.09003,0.01001-0.13H6.48411l0.01001-0.02002l0.37012-1.06
			l1.07996-3.03998l0.03003-0.09003c0.08997-0.23999,0.30994-0.40997,0.57996-0.40997s0.48999,0.16998,0.58008,0.40997
			l0.02991,0.09003l1.07996,3.03998l0.37012,1.06l0.01001,0.02002H10.61424z"/>
		<path class="st4" d="M17.00836,68.68695c0.01001,0.03998,0.01001,0.08997,0.01001,0.13c0,1.13995-0.92004,2.07001-2.07007,2.07001
			c-1.14001,0-2.07007-0.93005-2.07007-2.07001c0-0.04004,0-0.09003,0.01001-0.13h-0.01001l0.01001-0.02002l0.37012-1.06
			l1.07996-3.03998l0.03003-0.09003c0.08997-0.23999,0.30994-0.40997,0.57996-0.40997s0.48999,0.16998,0.58008,0.40997
			l0.02991,0.09003l1.07996,3.03998l0.37012,1.06l0.01001,0.02002H17.00836z"/>
		<path class="st4" d="M17.0084,33.70029c0.01001,0.03998,0.01001,0.08997,0.01001,0.13c0,1.13995-0.92004,2.07001-2.07007,2.07001
			c-1.14001,0-2.07007-0.93005-2.07007-2.07001c0-0.04004,0-0.09003,0.01001-0.13h-0.01001l0.01001-0.02002l0.37012-1.06
			l1.07996-3.03998l0.03003-0.09003c0.08997-0.23999,0.30994-0.40997,0.57996-0.40997s0.48999,0.16998,0.58008,0.40997
			l0.02991,0.09003l1.07996,3.03998l0.37012,1.06l0.01001,0.02002H17.0084z"/>
		<path class="st4" d="M23.40253,42.44696c0.01001,0.03998,0.01001,0.08997,0.01001,0.13c0,1.13995-0.92004,2.07001-2.07007,2.07001
			c-1.14001,0-2.07007-0.93005-2.07007-2.07001c0-0.04004,0-0.09003,0.01001-0.13H19.2724l0.01001-0.02002l0.37012-1.06
			l1.07996-3.03998l0.03003-0.09003c0.08997-0.23999,0.30994-0.40997,0.57996-0.40997s0.48999,0.16998,0.58008,0.40997
			l0.02991,0.09003l1.07996,3.03998l0.37012,1.06l0.01001,0.02002H23.40253z"/>
		<path class="st4" d="M10.61424,42.44696c0.01001,0.03998,0.01001,0.08997,0.01001,0.13c0,1.13995-0.92004,2.07001-2.07007,2.07001
			c-1.14001,0-2.07007-0.93005-2.07007-2.07001c0-0.04004,0-0.09003,0.01001-0.13H6.48411l0.01001-0.02002l0.37012-1.06
			l1.07996-3.03998l0.03003-0.09003c0.08997-0.23999,0.30994-0.40997,0.57996-0.40997s0.48999,0.16998,0.58008,0.40997
			l0.02991,0.09003l1.07996,3.03998l0.37012,1.06l0.01001,0.02002H10.61424z"/>
		<path class="st4" d="M61.76746,59.94029c0.01001,0.03998,0.01001,0.08997,0.01001,0.13c0,1.13995-0.92004,2.07001-2.07007,2.07001
			c-1.14001,0-2.07007-0.93005-2.07007-2.07001c0-0.04004,0-0.09003,0.01001-0.13h-0.01001l0.01001-0.02002l0.37012-1.06
			l1.07996-3.03998l0.03003-0.09003c0.08997-0.23999,0.30994-0.40997,0.57996-0.40997s0.48999,0.16998,0.58008,0.40997
			l0.02991,0.09003l1.07996,3.03998l0.37012,1.06l0.01001,0.02002H61.76746z"/>
		<path class="st4" d="M68.16166,51.19362c0.01001,0.03998,0.01001,0.08997,0.01001,0.13c0,1.13995-0.92004,2.07001-2.07007,2.07001
			c-1.14001,0-2.07007-0.93005-2.07007-2.07001c0-0.04004,0-0.09003,0.01001-0.13h-0.01001l0.01001-0.02002l0.37012-1.06
			l1.07996-3.03998l0.03003-0.09003c0.08997-0.23999,0.30994-0.40997,0.57996-0.40997s0.48999,0.16998,0.58008,0.40997
			l0.02991,0.09003l1.07996,3.03998l0.37012,1.06l0.01001,0.02002H68.16166z"/>
		<path class="st4" d="M74.55579,59.94029c0.01001,0.03998,0.01001,0.08997,0.01001,0.13c0,1.13995-0.92004,2.07001-2.07007,2.07001
			c-1.14001,0-2.07007-0.93005-2.07007-2.07001c0-0.04004,0-0.09003,0.01001-0.13h-0.01001l0.01001-0.02002l0.37012-1.06
			l1.07996-3.03998l0.03003-0.09003c0.08997-0.23999,0.30994-0.40997,0.57996-0.40997s0.48999,0.16998,0.58008,0.40997
			l0.02991,0.09003l1.07996,3.03998l0.37012,1.06l0.01001,0.02002H74.55579z"/>
		<path class="st4" d="M68.16162,68.68695c0.01001,0.03998,0.01001,0.08997,0.01001,0.13c0,1.13995-0.92004,2.07001-2.07007,2.07001
			c-1.14001,0-2.07007-0.93005-2.07007-2.07001c0-0.04004,0-0.09003,0.01001-0.13h-0.01001l0.01001-0.02002l0.37012-1.06
			l1.07996-3.03998l0.03003-0.09003c0.08997-0.23999,0.30994-0.40997,0.57996-0.40997s0.48999,0.16998,0.58008,0.40997
			l0.02991,0.09003l1.07996,3.03998l0.37012,1.06l0.01001,0.02002H68.16162z"/>
	</g>
	<path class="st2" d="M30.41554,25.27978c0,2.79479-2.26426,5.05355-5.05355,5.05355H6.48776
		c-2.78935,0-5.05355-2.25876-5.05355-5.05355c0-2.4502,1.74465-4.4902,4.05812-4.94963
		c-0.01642-0.15312-0.0219-0.30628-0.0219-0.46487c0-2.70727,2.19316-4.90043,4.9004-4.90043
		c0.77672,0,1.50951,0.18049,2.16038,0.49772c1.33452-2.0127,3.62062-3.33624,6.21302-3.33624
		c4.11833,0,7.46002,3.34168,7.46002,7.46002c0,0.24065-0.01095,0.47582-0.03281,0.71099
		C28.57789,20.68019,30.41554,22.76396,30.41554,25.27978z"/>
</g>
</svg>
