<?xml version="1.0" encoding="utf-8"?>
<!-- Generator: Adobe Illustrator 22.1.0, SVG Export Plug-In . SVG Version: 6.00 Build 0)  -->
<svg version="1.1" id="Layer_2" xmlns="http://www.w3.org/2000/svg" xmlns:xlink="http://www.w3.org/1999/xlink" x="0px" y="0px"
	 viewBox="0 0 55 72" style="enable-background:new 0 0 55 72;" xml:space="preserve">
<style type="text/css">
	.st0{fill:#F5A714;}
	.st1{fill:#FDB813;}
	.st2{fill:#838A96;}
</style>
<g>
	<g>
		<g>
			<path class="st0" d="M17.98171,54.33846L9.8279,53.96444l7.15527-17.21191c0.31787-0.76367,1.19678-1.12598,1.96094-0.80859
				c0.76514,0.31738,1.12744,1.19531,0.80957,1.96094l-5.51269,13.25879l8.20557,0.37598L12.3157,70.92928L17.98171,54.33846z"/>
			<path class="st0" d="M12.3157,70.92928"/>
		</g>
		<g>
			<path class="st0" d="M36.30509,46.11567l-8.15381-0.37402l7.15527-17.21191c0.31787-0.76367,1.19678-1.12598,1.96094-0.80859
				c0.76514,0.31738,1.12744,1.19531,0.80957,1.96094l-5.5127,13.25879l8.20557,0.37598L30.63907,62.70649L36.30509,46.11567z"/>
			<path class="st0" d="M30.63907,62.70649"/>
		</g>
	</g>
	<circle class="st1" cx="28.22023" cy="17.52085" r="16.45013"/>
	<path class="st2" d="M53.99463,32.75431c-0.02557,5.10998-4.1862,9.21915-9.28611,9.19363L10.199,41.77525
		c-5.10003-0.02552-9.21921-4.17613-9.19363-9.28611c0.02242-4.47993,3.23099-8.1939,7.46512-9.01274
		c-0.02863-0.28012-0.03724-0.56019-0.03578-0.85016c0.02477-4.94995,4.0548-8.93984,9.00469-8.91507
		c1.42015,0.00711,2.75832,0.34382,3.94547,0.92979c2.45845-3.6678,6.65044-6.06683,11.39037-6.04311
		c7.52993,0.03768,13.60927,6.17817,13.57159,13.7081c-0.0022,0.44-0.02438,0.86988-0.06651,1.29967
		C50.67678,24.32762,54.01765,28.15439,53.99463,32.75431z"/>
</g>
</svg>
