<?xml version="1.0" encoding="utf-8"?>
<!-- Generator: Adobe Illustrator 22.1.0, SVG Export Plug-In . SVG Version: 6.00 Build 0)  -->
<svg version="1.1" id="Layer_2" xmlns="http://www.w3.org/2000/svg" xmlns:xlink="http://www.w3.org/1999/xlink" x="0px" y="0px"
	 viewBox="0 0 55 72" style="enable-background:new 0 0 55 72;" xml:space="preserve">
<style type="text/css">
	.st0{fill:#FFC655;}
	.st1{fill:#272A33;}
	.st2{fill:#F5A714;}
	.st3{fill:#838A96;}
</style>
<g>
	<g>
		<path class="st0" d="M43.47531,23.51078c-2.39001,6.13-8.34998,10.46002-15.32007,10.46002
			c-9.08997,0-16.44995-7.36005-16.44995-16.45001c0-6.02002,3.22998-11.28998,8.06006-14.15002
			c-0.72998,1.86005-1.13013,3.88-1.13013,5.98999c0,9.08002,7.37012,16.45001,16.45007,16.45001
			C38.14523,25.81077,41.02536,24.9708,43.47531,23.51078z"/>
		<path class="st1" d="M44.60531,17.52079c0,2.10999-0.40002,4.13-1.13,5.98999c-2.44995,1.46002-5.33008,2.29999-8.39001,2.29999
			c-9.07996,0-16.45007-7.37-16.45007-16.45001c0-2.10999,0.40015-4.12994,1.13013-5.98999
			c2.44995-1.45996,5.31995-2.29999,8.38989-2.29999C37.24533,1.07078,44.60531,8.44078,44.60531,17.52079z"/>
	</g>
	<g>
		<g>
			<path class="st2" d="M17.98171,54.3384L9.8279,53.96437l7.15527-17.21191c0.31787-0.76367,1.19678-1.12598,1.96094-0.80859
				c0.76514,0.31738,1.12744,1.19531,0.80957,1.96094l-5.51269,13.25879l8.20557,0.37598L12.3157,70.92922L17.98171,54.3384z"/>
			<path class="st2" d="M12.3157,70.92922"/>
		</g>
		<g>
			<path class="st2" d="M36.30509,46.1156l-8.15381-0.37402l7.15527-17.21191c0.31787-0.76367,1.19678-1.12598,1.96094-0.80859
				c0.76514,0.31738,1.12744,1.19531,0.80957,1.96094l-5.5127,13.25879l8.20557,0.37598L30.63907,62.70642L36.30509,46.1156z"/>
			<path class="st2" d="M30.63907,62.70642"/>
		</g>
	</g>
	<path class="st3" d="M53.99463,32.75425c-0.02557,5.10998-4.1862,9.21915-9.28611,9.19363L10.199,41.77518
		c-5.10003-0.02552-9.21921-4.17613-9.19363-9.28611c0.02242-4.47993,3.23099-8.1939,7.46512-9.01274
		c-0.02863-0.28012-0.03724-0.56019-0.03578-0.85016c0.02477-4.94995,4.0548-8.93984,9.00469-8.91507
		c1.42015,0.00711,2.75832,0.34383,3.94547,0.92979c2.45845-3.6678,6.65044-6.06683,11.39037-6.04311
		c7.52993,0.03768,13.60927,6.17817,13.57159,13.7081c-0.0022,0.44-0.02438,0.86988-0.06651,1.29967
		C50.67678,24.32756,54.01765,28.15433,53.99463,32.75425z"/>
</g>
</svg>
