<?xml version="1.0" encoding="utf-8"?>
<!-- Generator: Adobe Illustrator 22.1.0, SVG Export Plug-In . SVG Version: 6.00 Build 0)  -->
<svg version="1.1" id="Layer_2" xmlns="http://www.w3.org/2000/svg" xmlns:xlink="http://www.w3.org/1999/xlink" x="0px" y="0px"
	 viewBox="0 0 55 62" style="enable-background:new 0 0 55 62;" xml:space="preserve">
<style type="text/css">
	.st0{fill:#FDB813;}
	.st1{fill:#E8ECF7;}
	.st2{fill:#BDEFFF;}
</style>
<g>
	<circle class="st0" cx="28.1422" cy="17.99415" r="16.45013"/>
	<path class="st1" d="M53.99496,33.58786c0,5.11005-4.14001,9.23999-9.23999,9.23999H10.24503
		c-5.1001,0-9.23999-4.12994-9.23999-9.23999c0-4.47998,3.18994-8.20996,7.41992-9.04999
		c-0.03003-0.27997-0.04004-0.56-0.04004-0.84998c0-4.95001,4.01001-8.96002,8.95996-8.96002
		c1.42017,0,2.76001,0.33002,3.95007,0.91003c2.44006-3.68005,6.62-6.10004,11.35999-6.10004
		c7.53003,0,13.64001,6.10999,13.64001,13.64002c0,0.44-0.02002,0.87-0.06,1.29999
		C50.63498,25.17789,53.99496,28.98788,53.99496,33.58786z"/>
	<g>
		<path class="st2" d="M30.64924,56.61586l-1.68954,0.00439c0,0.0013,0,0.00306,0,0.00306
			c-0.03541-0.13813-0.09026-0.26962-0.1633-0.38894l0.75806-0.76361c0.13993-0.14139,0.13993-0.36879-0.00097-0.50906
			c-0.14189-0.13993-0.36946-0.1388-0.51102,0.00309l-0.75776,0.76262c-0.11948-0.07191-0.25097-0.1271-0.38701-0.16055
			l-0.00745-1.68953c0-0.19921-0.162-0.36055-0.36264-0.35875c-0.19675,0.00097-0.36105,0.16201-0.35716,0.36168l0.00392,1.68953
			c-0.13833,0.03424-0.2669,0.08943-0.38605,0.16134l-0.72269-0.71634c-0.14059-0.14156-0.36849-0.14076-0.51005,0
			c-0.14056,0.14186-0.14056,0.37042,0,0.51002l0.72369,0.71897c0.00163-0.00176,0.00163-0.00176,0.00163-0.00176
			c-0.07178,0.12011-0.1276,0.2516-0.163,0.39249c0.00259-0.00113,0.00259-0.00193,0.00259-0.00193l-1.69083,0.00469
			c-0.19871,0-0.35942,0.16317-0.35712,0.3633c0,0.19871,0.16104,0.35909,0.36038,0.35825l1.68857-0.00745v-0.0018
			c0.03634,0.1388,0.09123,0.27029,0.16297,0.38977l-0.75776,0.76245c-0.14056,0.14093-0.13993,0.37305,0.00259,0.51202
			c0.06915,0.06978,0.16234,0.10435,0.25552,0.10435c0.09186-0.00209,0.18279-0.03633,0.25386-0.10632l0.75776-0.76378
			c0.11948,0.07178,0.25097,0.12517,0.38897,0.15958l0.00648,1.68924c0,0.20064,0.16297,0.36005,0.36005,0.35909
			c0.2,0,0.36038-0.16104,0.35971-0.36071l-0.00485-1.69133c0.13797-0.03441,0.27045-0.09122,0.38894-0.16201H28.2948
			l0.72073,0.71767c0.07078,0.07191,0.16333,0.10502,0.25552,0.10502s0.18441-0.0362,0.25553-0.10715
			c0.14056-0.14169,0.1396-0.36783-0.001-0.50972l-0.72366-0.71604c0,0,0,0.00096-0.00163,0.00096
			c0.07174-0.11995,0.12564-0.25077,0.16104-0.38974l1.69017-0.00665c0.19675-0.00179,0.36005-0.16217,0.35716-0.36267
			C31.00866,56.77623,30.84762,56.6139,30.64924,56.61586z M27.54156,57.54976c-0.31068,0.00097-0.56328-0.24984-0.56391-0.55909
			c-0.00293-0.31134,0.24964-0.56524,0.56198-0.56704c0.30942,0,0.56394,0.24984,0.56394,0.56235
			C28.10649,57.29633,27.8539,57.54892,27.54156,57.54976z"/>
	</g>
	<g>
		<path class="st2" d="M37.04344,47.86919l-1.68953,0.00439c0,0.0013,0,0.00306,0,0.00306
			c-0.03541-0.13814-0.09026-0.26962-0.1633-0.38894l0.75806-0.76362c0.13993-0.14139,0.13993-0.36879-0.00097-0.50905
			c-0.14189-0.13993-0.36946-0.1388-0.51102,0.00309l-0.75776,0.76262c-0.11948-0.07191-0.25097-0.1271-0.38701-0.16054
			l-0.00745-1.68954c0-0.19921-0.16201-0.36055-0.36264-0.35875c-0.19675,0.00096-0.36105,0.162-0.35716,0.36168l0.00393,1.68954
			c-0.13834,0.03424-0.2669,0.08943-0.38605,0.16134l-0.72269-0.71634c-0.14059-0.14156-0.36849-0.14076-0.51005,0
			c-0.14056,0.14186-0.14056,0.37042,0,0.51002l0.72369,0.71897c0.00163-0.00176,0.00163-0.00176,0.00163-0.00176
			c-0.07177,0.12012-0.12759,0.2516-0.163,0.3925c0.00259-0.00113,0.00259-0.00193,0.00259-0.00193l-1.69083,0.00469
			c-0.19871,0-0.35942,0.16317-0.35712,0.36331c0,0.19871,0.16104,0.35908,0.36038,0.35825l1.68857-0.00745v-0.00179
			c0.03633,0.1388,0.09122,0.27029,0.16297,0.38977l-0.75776,0.76245c-0.14056,0.14093-0.13993,0.37305,0.00259,0.51201
			c0.06915,0.06978,0.16234,0.10436,0.25553,0.10436c0.09185-0.00209,0.18278-0.03634,0.25386-0.10632l0.75777-0.76378
			c0.11948,0.07178,0.25097,0.12517,0.38897,0.15958l0.00648,1.68924c0,0.20063,0.16297,0.36005,0.36005,0.35908
			c0.2,0,0.36038-0.16104,0.35972-0.36071l-0.00486-1.69133c0.13797-0.03441,0.27045-0.09123,0.38894-0.16201H34.689
			l0.72073,0.71767c0.07078,0.07191,0.16333,0.10502,0.25552,0.10502s0.18441-0.03621,0.25553-0.10715
			c0.14056-0.14169,0.1396-0.36783-0.001-0.50972l-0.72365-0.71604c0,0,0,0.00097-0.00163,0.00097
			c0.07174-0.11995,0.12563-0.25077,0.16104-0.38974l1.69017-0.00665c0.19675-0.0018,0.36005-0.16217,0.35715-0.36267
			C37.40286,48.02957,37.24182,47.86723,37.04344,47.86919z M33.93575,48.80309c-0.31068,0.00097-0.56328-0.24984-0.56391-0.55909
			c-0.00293-0.31134,0.24964-0.56524,0.56198-0.56703c0.30941,0,0.56394,0.24984,0.56394,0.56235
			C34.50069,48.54966,34.2481,48.80226,33.93575,48.80309z"/>
	</g>
	<g>
		<path class="st2" d="M24.25512,47.86919l-1.68954,0.00439c0,0.0013,0,0.00306,0,0.00306
			c-0.03541-0.13814-0.09026-0.26962-0.1633-0.38894l0.75806-0.76362c0.13993-0.14139,0.13993-0.36879-0.00097-0.50905
			c-0.14189-0.13993-0.36946-0.1388-0.51101,0.00309l-0.75776,0.76262c-0.11948-0.07191-0.25097-0.1271-0.38701-0.16054
			l-0.00745-1.68954c0-0.19921-0.162-0.36055-0.36264-0.35875c-0.19675,0.00096-0.36105,0.162-0.35716,0.36168l0.00392,1.68954
			c-0.13833,0.03424-0.2669,0.08943-0.38605,0.16134l-0.72269-0.71634c-0.1406-0.14156-0.36849-0.14076-0.51005,0
			c-0.14056,0.14186-0.14056,0.37042,0,0.51002l0.72369,0.71897c0.00163-0.00176,0.00163-0.00176,0.00163-0.00176
			c-0.07178,0.12012-0.1276,0.2516-0.163,0.3925c0.00259-0.00113,0.00259-0.00193,0.00259-0.00193l-1.69083,0.00469
			c-0.19871,0-0.35942,0.16317-0.35712,0.36331c0,0.19871,0.16104,0.35908,0.36038,0.35825l1.68857-0.00745v-0.00179
			c0.03634,0.1388,0.09123,0.27029,0.16297,0.38977l-0.75776,0.76245c-0.14056,0.14093-0.13993,0.37305,0.00259,0.51201
			c0.06915,0.06978,0.16234,0.10436,0.25553,0.10436c0.09186-0.00209,0.18278-0.03634,0.25386-0.10632l0.75776-0.76378
			c0.11948,0.07178,0.25097,0.12517,0.38897,0.15958l0.00648,1.68924c0,0.20063,0.16297,0.36005,0.36005,0.35908
			c0.2,0,0.36038-0.16104,0.35972-0.36071l-0.00485-1.69133c0.13797-0.03441,0.27045-0.09123,0.38894-0.16201h-0.00097
			l0.72073,0.71767c0.07078,0.07191,0.16333,0.10502,0.25552,0.10502s0.18441-0.03621,0.25553-0.10715
			c0.14056-0.14169,0.1396-0.36783-0.001-0.50972l-0.72365-0.71604c0,0,0,0.00097-0.00163,0.00097
			c0.07174-0.11995,0.12564-0.25077,0.16104-0.38974l1.69017-0.00665c0.19675-0.0018,0.36005-0.16217,0.35715-0.36267
			C24.61453,48.02957,24.45349,47.86723,24.25512,47.86919z M21.14743,48.80309c-0.31068,0.00097-0.56328-0.24984-0.56391-0.55909
			c-0.00293-0.31134,0.24964-0.56524,0.56198-0.56703c0.30942,0,0.56394,0.24984,0.56394,0.56235
			C21.71237,48.54966,21.45977,48.80226,21.14743,48.80309z"/>
	</g>
</g>
</svg>
