<?xml version="1.0" encoding="utf-8"?>
<!-- Generator: Adobe Illustrator 22.1.0, SVG Export Plug-In . SVG Version: 6.00 Build 0)  -->
<svg version="1.1" id="Layer_2" xmlns="http://www.w3.org/2000/svg" xmlns:xlink="http://www.w3.org/1999/xlink" x="0px" y="0px"
	 viewBox="0 0 77 72" style="enable-background:new 0 0 77 72;" xml:space="preserve">
<style type="text/css">
	.st0{fill:#BDEFFF;}
	.st1{fill:#FDB813;}
	.st2{fill:#838A96;}
	.st3{fill:#E8ECF7;}
</style>
<g>
	<g>
		<path class="st0" d="M37.04037,58.47411l-1.68953,0.00439c0,0.0013,0,0.00306,0,0.00306
			c-0.03541-0.13814-0.09026-0.26962-0.1633-0.38894L35.9456,57.329c0.13993-0.14139,0.13993-0.36879-0.00097-0.50905
			c-0.14189-0.13993-0.36946-0.1388-0.51102,0.00309l-0.75776,0.76262c-0.11948-0.07191-0.25097-0.1271-0.38701-0.16054
			l-0.00745-1.68954c0-0.19921-0.162-0.36055-0.36264-0.35875c-0.19675,0.00096-0.36105,0.162-0.35715,0.36168l0.00392,1.68954
			c-0.13834,0.03424-0.2669,0.08943-0.38605,0.16134l-0.72269-0.71634c-0.14059-0.14156-0.36849-0.14076-0.51005,0
			c-0.14056,0.14186-0.14056,0.37042,0,0.51002l0.72369,0.71897c0.00163-0.00176,0.00163-0.00176,0.00163-0.00176
			c-0.07178,0.12012-0.1276,0.2516-0.16301,0.39249c0.00259-0.00113,0.00259-0.00193,0.00259-0.00193l-1.69083,0.00469
			c-0.19871,0-0.35942,0.16317-0.35712,0.3633c0,0.19871,0.16104,0.35909,0.36038,0.35825l1.68857-0.00745v-0.00179
			c0.03633,0.1388,0.09122,0.27028,0.16297,0.38977l-0.75776,0.76245c-0.14056,0.14093-0.13993,0.37305,0.00259,0.51201
			c0.06915,0.06978,0.16234,0.10436,0.25553,0.10436c0.09186-0.00209,0.18278-0.03634,0.25386-0.10632l0.75777-0.76378
			c0.11948,0.07178,0.25097,0.12517,0.38897,0.15958l0.00648,1.68924c0,0.20063,0.16297,0.36005,0.36005,0.35908
			c0.2,0,0.36038-0.16104,0.35972-0.36071l-0.00486-1.69133c0.13797-0.03441,0.27045-0.09122,0.38894-0.162h-0.00096
			l0.72073,0.71767c0.07078,0.07191,0.16334,0.10502,0.25553,0.10502s0.18441-0.03621,0.25552-0.10715
			c0.14056-0.14169,0.1396-0.36783-0.001-0.50972l-0.72365-0.71604c0,0,0,0.00097-0.00163,0.00097
			c0.07174-0.11995,0.12563-0.25077,0.16104-0.38974l1.69017-0.00665c0.19675-0.0018,0.36005-0.16217,0.35715-0.36267
			C37.39979,58.63448,37.23875,58.47215,37.04037,58.47411z M33.93269,59.408c-0.31068,0.00097-0.56328-0.24984-0.56391-0.55909
			c-0.00293-0.31134,0.24964-0.56524,0.56198-0.56703c0.30942,0,0.56394,0.24984,0.56394,0.56235
			C34.49763,59.15458,34.24503,59.40717,33.93269,59.408z"/>
	</g>
	<g>
		<path class="st0" d="M43.43457,49.72744l-1.68953,0.00439c0,0.0013,0,0.00306,0,0.00306
			c-0.03541-0.13813-0.09026-0.26962-0.1633-0.38894l0.75806-0.76361c0.13993-0.1414,0.13993-0.36879-0.00097-0.50906
			c-0.14189-0.13993-0.36946-0.1388-0.51102,0.00309l-0.75776,0.76262c-0.11948-0.07191-0.25097-0.12709-0.38701-0.16054
			l-0.00745-1.68953c0-0.19921-0.16201-0.36055-0.36264-0.35875c-0.19675,0.00097-0.36105,0.16201-0.35716,0.36168l0.00393,1.68953
			c-0.13834,0.03424-0.2669,0.08943-0.38605,0.16134l-0.72269-0.71634c-0.14059-0.14156-0.36849-0.14076-0.51005,0
			c-0.14056,0.14186-0.14056,0.37042,0,0.51002l0.72369,0.71896c0.00163-0.00176,0.00163-0.00176,0.00163-0.00176
			c-0.07177,0.12012-0.12759,0.2516-0.163,0.3925c0.00259-0.00113,0.00259-0.00193,0.00259-0.00193l-1.69083,0.00469
			c-0.19871,0-0.35942,0.16317-0.35712,0.36331c0,0.19871,0.16104,0.35909,0.36038,0.35825l1.68857-0.00745v-0.0018
			c0.03633,0.1388,0.09122,0.27029,0.16297,0.38977l-0.75776,0.76245c-0.14056,0.14093-0.13993,0.37305,0.00259,0.51201
			c0.06915,0.06978,0.16234,0.10436,0.25553,0.10436c0.09186-0.00209,0.18278-0.03634,0.25386-0.10632l0.75777-0.76378
			c0.11948,0.07178,0.25097,0.12517,0.38897,0.15958l0.00648,1.68924c0,0.20064,0.16297,0.36005,0.36005,0.35909
			c0.2,0,0.36038-0.16104,0.35972-0.36071l-0.00486-1.69133c0.13797-0.03441,0.27045-0.09122,0.38894-0.16201h-0.00096
			l0.72073,0.71767c0.07078,0.07191,0.16334,0.10502,0.25553,0.10502c0.09219,0,0.18441-0.03621,0.25552-0.10715
			c0.14056-0.14169,0.1396-0.36783-0.001-0.50972l-0.72365-0.71604c0,0,0,0.00097-0.00163,0.00097
			c0.07174-0.11995,0.12563-0.25077,0.16104-0.38974l1.69017-0.00665c0.19675-0.0018,0.36005-0.16217,0.35715-0.36267
			C43.79399,49.88782,43.63295,49.72548,43.43457,49.72744z M40.32689,50.66134c-0.31068,0.00096-0.56328-0.24984-0.56391-0.55909
			c-0.00293-0.31134,0.24964-0.56524,0.56198-0.56704c0.30941,0,0.56394,0.24984,0.56394,0.56235
			C40.89183,50.40791,40.63923,50.66051,40.32689,50.66134z"/>
	</g>
	<g>
		<path class="st0" d="M30.64625,49.72744l-1.68954,0.00439c0,0.0013,0,0.00306,0,0.00306
			c-0.03541-0.13813-0.09026-0.26962-0.1633-0.38894l0.75806-0.76361c0.13993-0.1414,0.13993-0.36879-0.00097-0.50906
			c-0.14189-0.13993-0.36946-0.1388-0.51101,0.00309l-0.75776,0.76262c-0.11948-0.07191-0.25097-0.12709-0.38701-0.16054
			l-0.00745-1.68953c0-0.19921-0.16201-0.36055-0.36264-0.35875c-0.19675,0.00097-0.36105,0.16201-0.35716,0.36168l0.00392,1.68953
			c-0.13833,0.03424-0.2669,0.08943-0.38605,0.16134l-0.72269-0.71634c-0.1406-0.14156-0.36849-0.14076-0.51005,0
			c-0.14056,0.14186-0.14056,0.37042,0,0.51002l0.72369,0.71896c0.00163-0.00176,0.00163-0.00176,0.00163-0.00176
			c-0.07178,0.12012-0.1276,0.2516-0.163,0.3925c0.00259-0.00113,0.00259-0.00193,0.00259-0.00193l-1.69083,0.00469
			c-0.19871,0-0.35942,0.16317-0.35712,0.36331c0,0.19871,0.16104,0.35909,0.36038,0.35825l1.68857-0.00745v-0.0018
			c0.03634,0.1388,0.09123,0.27029,0.16297,0.38977l-0.75776,0.76245c-0.14056,0.14093-0.13993,0.37305,0.00259,0.51201
			c0.06915,0.06978,0.16234,0.10436,0.25553,0.10436c0.09186-0.00209,0.18278-0.03634,0.25386-0.10632l0.75776-0.76378
			c0.11949,0.07178,0.25097,0.12517,0.38897,0.15958l0.00648,1.68924c0,0.20064,0.16297,0.36005,0.36005,0.35909
			c0.2,0,0.36038-0.16104,0.35972-0.36071l-0.00485-1.69133c0.13797-0.03441,0.27045-0.09122,0.38894-0.16201h-0.00097
			l0.72073,0.71767c0.07078,0.07191,0.16333,0.10502,0.25552,0.10502s0.18441-0.03621,0.25553-0.10715
			c0.14056-0.14169,0.1396-0.36783-0.001-0.50972l-0.72365-0.71604c0,0,0,0.00097-0.00163,0.00097
			c0.07174-0.11995,0.12563-0.25077,0.16104-0.38974l1.69017-0.00665c0.19675-0.0018,0.36005-0.16217,0.35715-0.36267
			C31.00567,49.88782,30.84463,49.72548,30.64625,49.72744z M27.53856,50.66134c-0.31068,0.00096-0.56328-0.24984-0.56391-0.55909
			c-0.00293-0.31134,0.24964-0.56524,0.56198-0.56704c0.30942,0,0.56394,0.24984,0.56394,0.56235
			C28.1035,50.40791,27.8509,50.66051,27.53856,50.66134z"/>
	</g>
	<g>
		<path class="st0" d="M62.61699,58.47411l-1.68953,0.00439c0,0.0013,0,0.00306,0,0.00306
			c-0.03541-0.13814-0.09026-0.26962-0.1633-0.38894l0.75806-0.76362c0.13993-0.14139,0.13993-0.36879-0.00097-0.50905
			c-0.14189-0.13993-0.36946-0.1388-0.51102,0.00309l-0.75776,0.76262c-0.11948-0.07191-0.25097-0.1271-0.38701-0.16054
			l-0.00745-1.68954c0-0.19921-0.162-0.36055-0.36264-0.35875c-0.19675,0.00096-0.36105,0.162-0.35715,0.36168l0.00392,1.68954
			c-0.13834,0.03424-0.2669,0.08943-0.38605,0.16134l-0.72269-0.71634c-0.14059-0.14156-0.36849-0.14076-0.51005,0
			c-0.14056,0.14186-0.14056,0.37042,0,0.51002l0.72369,0.71897c0.00163-0.00176,0.00163-0.00176,0.00163-0.00176
			c-0.07178,0.12012-0.1276,0.2516-0.16301,0.39249c0.00259-0.00113,0.00259-0.00193,0.00259-0.00193l-1.69083,0.00469
			c-0.19871,0-0.35942,0.16317-0.35712,0.3633c0,0.19871,0.16104,0.35909,0.36038,0.35825l1.68857-0.00745v-0.00179
			c0.03633,0.1388,0.09122,0.27028,0.16297,0.38977l-0.75776,0.76245c-0.14056,0.14093-0.13993,0.37305,0.00259,0.51201
			c0.06915,0.06978,0.16233,0.10436,0.25552,0.10436c0.09186-0.00209,0.18278-0.03634,0.25386-0.10632l0.75777-0.76378
			c0.11948,0.07178,0.25097,0.12517,0.38897,0.15958l0.00648,1.68924c0,0.20063,0.16297,0.36005,0.36005,0.35908
			c0.2,0,0.36038-0.16104,0.35972-0.36071l-0.00486-1.69133c0.13797-0.03441,0.27045-0.09122,0.38894-0.162h-0.00096
			l0.72073,0.71767c0.07078,0.07191,0.16334,0.10502,0.25553,0.10502s0.18441-0.03621,0.25552-0.10715
			c0.14056-0.14169,0.1396-0.36783-0.001-0.50972l-0.72365-0.71604c0,0,0,0.00097-0.00163,0.00097
			c0.07174-0.11995,0.12563-0.25077,0.16104-0.38974l1.69017-0.00665c0.19675-0.0018,0.36005-0.16217,0.35715-0.36267
			C62.9764,58.63448,62.81536,58.47215,62.61699,58.47411z M59.5093,59.408c-0.31068,0.00097-0.56328-0.24984-0.56391-0.55909
			c-0.00293-0.31134,0.24964-0.56524,0.56198-0.56703c0.30942,0,0.56394,0.24984,0.56394,0.56235
			C60.07424,59.15458,59.82164,59.40717,59.5093,59.408z"/>
	</g>
	<g>
		<path class="st0" d="M69.01118,49.72744l-1.68954,0.00439c0,0.0013,0,0.00306,0,0.00306
			c-0.03541-0.13813-0.09026-0.26962-0.1633-0.38894l0.75806-0.76361c0.13993-0.1414,0.13993-0.36879-0.00096-0.50906
			c-0.1419-0.13993-0.36946-0.1388-0.51102,0.00309l-0.75777,0.76262c-0.11948-0.07191-0.25097-0.12709-0.38701-0.16054
			l-0.00745-1.68953c0-0.19921-0.16201-0.36055-0.36265-0.35875c-0.19675,0.00097-0.36105,0.16201-0.35715,0.36168l0.00392,1.68953
			c-0.13833,0.03424-0.26689,0.08943-0.38604,0.16134l-0.72269-0.71634c-0.14059-0.14156-0.36849-0.14076-0.51005,0
			c-0.14056,0.14186-0.14056,0.37042,0,0.51002l0.72369,0.71896c0.00163-0.00176,0.00163-0.00176,0.00163-0.00176
			c-0.07178,0.12012-0.12759,0.2516-0.163,0.3925c0.00259-0.00113,0.00259-0.00193,0.00259-0.00193l-1.69083,0.00469
			c-0.19871,0-0.35942,0.16317-0.35712,0.36331c0,0.19871,0.16104,0.35909,0.36038,0.35825l1.68857-0.00745v-0.0018
			c0.03634,0.1388,0.09122,0.27029,0.16296,0.38977l-0.75776,0.76245c-0.14056,0.14093-0.13993,0.37305,0.00259,0.51201
			c0.06915,0.06978,0.16234,0.10436,0.25553,0.10436c0.09186-0.00209,0.18279-0.03634,0.25386-0.10632l0.75777-0.76378
			c0.11948,0.07178,0.25097,0.12517,0.38897,0.15958l0.00648,1.68924c0,0.20064,0.16297,0.36005,0.36005,0.35909
			c0.2,0,0.36038-0.16104,0.35972-0.36071l-0.00485-1.69133c0.13796-0.03441,0.27045-0.09122,0.38894-0.16201h-0.00097
			l0.72073,0.71767c0.07078,0.07191,0.16333,0.10502,0.25552,0.10502c0.09219,0,0.18441-0.03621,0.25552-0.10715
			c0.14056-0.14169,0.1396-0.36783-0.001-0.50972l-0.72366-0.71604c0,0,0,0.00097-0.00163,0.00097
			c0.07174-0.11995,0.12563-0.25077,0.16104-0.38974l1.69016-0.00665c0.19675-0.0018,0.36005-0.16217,0.35716-0.36267
			C69.37061,49.88782,69.20956,49.72548,69.01118,49.72744z M65.9035,50.66134c-0.31068,0.00096-0.56328-0.24984-0.56391-0.55909
			c-0.00292-0.31134,0.24964-0.56524,0.56198-0.56704c0.30942,0,0.56395,0.24984,0.56395,0.56235
			C66.46844,50.40791,66.21584,50.66051,65.9035,50.66134z"/>
	</g>
	<g>
		<path class="st0" d="M56.22286,49.72744l-1.68954,0.00439c0,0.0013,0,0.00306,0,0.00306
			c-0.0354-0.13813-0.09026-0.26962-0.1633-0.38894l0.75806-0.76361c0.13993-0.1414,0.13993-0.36879-0.00096-0.50906
			c-0.14189-0.13993-0.36946-0.1388-0.51102,0.00309l-0.75777,0.76262c-0.11948-0.07191-0.25097-0.12709-0.38701-0.16054
			l-0.00745-1.68953c0-0.19921-0.16201-0.36055-0.36264-0.35875c-0.19675,0.00097-0.36105,0.16201-0.35715,0.36168l0.00392,1.68953
			c-0.13833,0.03424-0.26689,0.08943-0.38604,0.16134l-0.72269-0.71634c-0.14059-0.14156-0.36849-0.14076-0.51005,0
			c-0.14056,0.14186-0.14056,0.37042,0,0.51002l0.72369,0.71896c0.00163-0.00176,0.00163-0.00176,0.00163-0.00176
			c-0.07178,0.12012-0.12759,0.2516-0.163,0.3925c0.00259-0.00113,0.00259-0.00193,0.00259-0.00193l-1.69083,0.00469
			c-0.19871,0-0.35942,0.16317-0.35712,0.36331c0,0.19871,0.16104,0.35909,0.36038,0.35825l1.68857-0.00745v-0.0018
			c0.03634,0.1388,0.09122,0.27029,0.16297,0.38977l-0.75777,0.76245c-0.14056,0.14093-0.13993,0.37305,0.00259,0.51201
			c0.06915,0.06978,0.16234,0.10436,0.25552,0.10436c0.09186-0.00209,0.18279-0.03634,0.25386-0.10632l0.75776-0.76378
			c0.11948,0.07178,0.25097,0.12517,0.38897,0.15958l0.00648,1.68924c0,0.20064,0.16297,0.36005,0.36005,0.35909
			c0.2,0,0.36038-0.16104,0.35971-0.36071l-0.00485-1.69133c0.13797-0.03441,0.27045-0.09122,0.38894-0.16201h-0.00097
			l0.72073,0.71767c0.07078,0.07191,0.16333,0.10502,0.25552,0.10502s0.18441-0.03621,0.25552-0.10715
			c0.14056-0.14169,0.1396-0.36783-0.001-0.50972l-0.72366-0.71604c0,0,0,0.00097-0.00163,0.00097
			c0.07174-0.11995,0.12564-0.25077,0.16104-0.38974l1.69017-0.00665c0.19675-0.0018,0.36005-0.16217,0.35716-0.36267
			C56.58228,49.88782,56.42124,49.72548,56.22286,49.72744z M53.11517,50.66134c-0.31068,0.00096-0.56328-0.24984-0.56391-0.55909
			c-0.00293-0.31134,0.24964-0.56524,0.56198-0.56704c0.30941,0,0.56394,0.24984,0.56394,0.56235
			C53.68011,50.40791,53.42751,50.66051,53.11517,50.66134z"/>
	</g>
	<g>
		<path class="st0" d="M11.46377,58.47411L9.77423,58.4785c0,0.0013,0,0.00306,0,0.00306
			c-0.03541-0.13814-0.09026-0.26962-0.1633-0.38894l0.75806-0.76362c0.13993-0.14139,0.13993-0.36879-0.00096-0.50905
			c-0.14189-0.13993-0.36946-0.1388-0.51102,0.00309l-0.75776,0.76262c-0.11948-0.07191-0.25097-0.1271-0.38701-0.16054
			l-0.00745-1.68954c0-0.19921-0.16201-0.36055-0.36264-0.35875c-0.19675,0.00096-0.36105,0.162-0.35716,0.36168l0.00392,1.68954
			c-0.13833,0.03424-0.26689,0.08943-0.38605,0.16134l-0.72269-0.71634c-0.14059-0.14156-0.36849-0.14076-0.51005,0
			c-0.14056,0.14186-0.14056,0.37042,0,0.51002l0.72369,0.71897c0.00163-0.00176,0.00163-0.00176,0.00163-0.00176
			c-0.07178,0.12012-0.1276,0.2516-0.163,0.39249c0.00259-0.00113,0.00259-0.00193,0.00259-0.00193L5.2442,58.49552
			c-0.19871,0-0.35942,0.16317-0.35712,0.3633c0,0.19871,0.16104,0.35909,0.36038,0.35825l1.68857-0.00745v-0.00179
			c0.03634,0.1388,0.09123,0.27028,0.16297,0.38977l-0.75776,0.76245c-0.14056,0.14093-0.13993,0.37305,0.00259,0.51201
			c0.06915,0.06978,0.16234,0.10436,0.25552,0.10436c0.09186-0.00209,0.18278-0.03634,0.25386-0.10632l0.75776-0.76378
			c0.11948,0.07178,0.25097,0.12517,0.38897,0.15958l0.00648,1.68924c0,0.20063,0.16297,0.36005,0.36005,0.35908
			c0.20001,0,0.36038-0.16104,0.35972-0.36071l-0.00485-1.69133c0.13797-0.03441,0.27045-0.09122,0.38894-0.162H9.10932
			l0.72073,0.71767c0.07078,0.07191,0.16333,0.10502,0.25552,0.10502s0.18441-0.03621,0.25552-0.10715
			c0.14056-0.14169,0.1396-0.36783-0.001-0.50972l-0.72365-0.71604c0,0,0,0.00097-0.00163,0.00097
			c0.07174-0.11995,0.12563-0.25077,0.16104-0.38974l1.69017-0.00665c0.19675-0.0018,0.36005-0.16217,0.35716-0.36267
			C11.82318,58.63448,11.66214,58.47215,11.46377,58.47411z M8.35608,59.408c-0.31068,0.00097-0.56328-0.24984-0.56391-0.55909
			c-0.00293-0.31134,0.24964-0.56524,0.56198-0.56703c0.30942,0,0.56394,0.24984,0.56394,0.56235
			C8.92102,59.15458,8.66842,59.40717,8.35608,59.408z"/>
	</g>
	<g>
		<path class="st0" d="M24.25207,58.47411l-1.68954,0.00439c0,0.0013,0,0.00306,0,0.00306
			c-0.03541-0.13814-0.09026-0.26962-0.1633-0.38894L23.1573,57.329c0.13993-0.14139,0.13993-0.36879-0.00097-0.50905
			c-0.14189-0.13993-0.36946-0.1388-0.51101,0.00309l-0.75776,0.76262c-0.11948-0.07191-0.25097-0.1271-0.38701-0.16054
			l-0.00745-1.68954c0-0.19921-0.162-0.36055-0.36264-0.35875c-0.19675,0.00096-0.36105,0.162-0.35716,0.36168l0.00392,1.68954
			c-0.13833,0.03424-0.2669,0.08943-0.38605,0.16134l-0.72269-0.71634c-0.1406-0.14156-0.36849-0.14076-0.51005,0
			c-0.14056,0.14186-0.14056,0.37042,0,0.51002l0.72369,0.71897c0.00163-0.00176,0.00163-0.00176,0.00163-0.00176
			c-0.07178,0.12012-0.1276,0.2516-0.163,0.39249c0.00259-0.00113,0.00259-0.00193,0.00259-0.00193l-1.69083,0.00469
			c-0.19871,0-0.35942,0.16317-0.35712,0.3633c0,0.19871,0.16104,0.35909,0.36038,0.35825l1.68857-0.00745v-0.00179
			c0.03634,0.1388,0.09123,0.27028,0.16297,0.38977l-0.75776,0.76245c-0.14056,0.14093-0.13993,0.37305,0.00259,0.51201
			c0.06915,0.06978,0.16234,0.10436,0.25553,0.10436c0.09186-0.00209,0.18278-0.03634,0.25386-0.10632l0.75776-0.76378
			c0.11948,0.07178,0.25097,0.12517,0.38897,0.15958l0.00648,1.68924c0,0.20063,0.16297,0.36005,0.36005,0.35908
			c0.2,0,0.36038-0.16104,0.35972-0.36071l-0.00485-1.69133c0.13797-0.03441,0.27045-0.09122,0.38894-0.162h-0.00097
			l0.72073,0.71767c0.07078,0.07191,0.16333,0.10502,0.25552,0.10502s0.18441-0.03621,0.25553-0.10715
			c0.14056-0.14169,0.1396-0.36783-0.001-0.50972l-0.72365-0.71604c0,0,0,0.00097-0.00163,0.00097
			c0.07174-0.11995,0.12564-0.25077,0.16104-0.38974l1.69017-0.00665c0.19675-0.0018,0.36005-0.16217,0.35715-0.36267
			C24.61149,58.63448,24.45045,58.47215,24.25207,58.47411z M21.14438,59.408c-0.31068,0.00097-0.56328-0.24984-0.56391-0.55909
			c-0.00293-0.31134,0.24964-0.56524,0.56198-0.56703c0.30942,0,0.56394,0.24984,0.56394,0.56235
			C21.70932,59.15458,21.45672,59.40717,21.14438,59.408z"/>
	</g>
	<g>
		<path class="st0" d="M49.82868,58.47411l-1.68954,0.00439c0,0.0013,0,0.00306,0,0.00306
			c-0.0354-0.13814-0.09026-0.26962-0.1633-0.38894l0.75806-0.76362c0.13993-0.14139,0.13993-0.36879-0.00096-0.50905
			c-0.14189-0.13993-0.36946-0.1388-0.51102,0.00309l-0.75777,0.76262c-0.11948-0.07191-0.25097-0.1271-0.38701-0.16054
			l-0.00745-1.68954c0-0.19921-0.16201-0.36055-0.36264-0.35875c-0.19675,0.00096-0.36105,0.162-0.35715,0.36168l0.00392,1.68954
			c-0.13833,0.03424-0.26689,0.08943-0.38604,0.16134l-0.72269-0.71634c-0.14059-0.14156-0.36849-0.14076-0.51005,0
			c-0.14056,0.14186-0.14056,0.37042,0,0.51002l0.72369,0.71897c0.00163-0.00176,0.00163-0.00176,0.00163-0.00176
			c-0.07178,0.12012-0.1276,0.2516-0.163,0.39249c0.00259-0.00113,0.00259-0.00193,0.00259-0.00193l-1.69083,0.00469
			c-0.19871,0-0.35942,0.16317-0.35712,0.3633c0,0.19871,0.16104,0.35909,0.36038,0.35825l1.68857-0.00745v-0.00179
			c0.03634,0.1388,0.09122,0.27028,0.16297,0.38977l-0.75777,0.76245c-0.14056,0.14093-0.13993,0.37305,0.00259,0.51201
			c0.06915,0.06978,0.16234,0.10436,0.25552,0.10436c0.09186-0.00209,0.18279-0.03634,0.25386-0.10632l0.75776-0.76378
			c0.11948,0.07178,0.25097,0.12517,0.38897,0.15958l0.00648,1.68924c0,0.20063,0.16297,0.36005,0.36005,0.35908
			c0.2,0,0.36038-0.16104,0.35971-0.36071l-0.00485-1.69133c0.13797-0.03441,0.27045-0.09122,0.38894-0.162h-0.00097
			l0.72073,0.71767c0.07078,0.07191,0.16333,0.10502,0.25552,0.10502s0.18441-0.03621,0.25552-0.10715
			c0.14056-0.14169,0.1396-0.36783-0.001-0.50972l-0.72366-0.71604c0,0,0,0.00097-0.00163,0.00097
			c0.07174-0.11995,0.12564-0.25077,0.16104-0.38974l1.69017-0.00665c0.19675-0.0018,0.36005-0.16217,0.35716-0.36267
			C50.1881,58.63448,50.02706,58.47215,49.82868,58.47411z M46.72099,59.408c-0.31068,0.00097-0.56328-0.24984-0.56391-0.55909
			c-0.00292-0.31134,0.24964-0.56524,0.56199-0.56703c0.30941,0,0.56394,0.24984,0.56394,0.56235
			C47.28593,59.15458,47.03333,59.40717,46.72099,59.408z"/>
	</g>
	<g>
		<path class="st0" d="M75.40535,58.47411l-1.68954,0.00439c0,0.0013,0,0.00306,0,0.00306
			c-0.03541-0.13814-0.09026-0.26962-0.1633-0.38894l0.75806-0.76362c0.13993-0.14139,0.13993-0.36879-0.00096-0.50905
			c-0.14189-0.13993-0.36945-0.1388-0.51102,0.00309l-0.75776,0.76262c-0.11949-0.07191-0.25098-0.1271-0.38702-0.16054
			l-0.00745-1.68954c0-0.19921-0.162-0.36055-0.36264-0.35875c-0.19675,0.00096-0.36105,0.162-0.35715,0.36168l0.00392,1.68954
			c-0.13834,0.03424-0.26689,0.08943-0.38605,0.16134l-0.72269-0.71634c-0.14059-0.14156-0.36849-0.14076-0.51006,0
			c-0.14056,0.14186-0.14056,0.37042,0,0.51002l0.72369,0.71897c0.00163-0.00176,0.00163-0.00176,0.00163-0.00176
			c-0.07178,0.12012-0.12759,0.2516-0.163,0.39249c0.00259-0.00113,0.00259-0.00193,0.00259-0.00193l-1.69083,0.00469
			c-0.19871,0-0.35942,0.16317-0.35712,0.3633c0,0.19871,0.16104,0.35909,0.36038,0.35825l1.68857-0.00745v-0.00179
			c0.03634,0.1388,0.09122,0.27028,0.16297,0.38977l-0.75777,0.76245c-0.14056,0.14093-0.13993,0.37305,0.00259,0.51201
			c0.06915,0.06978,0.16234,0.10436,0.25552,0.10436c0.09186-0.00209,0.18279-0.03634,0.25387-0.10632l0.75776-0.76378
			c0.11948,0.07178,0.25098,0.12517,0.38898,0.15958l0.00648,1.68924c0,0.20063,0.16297,0.36005,0.36005,0.35908
			c0.2,0,0.36038-0.16104,0.35971-0.36071l-0.00485-1.69133c0.13797-0.03441,0.27045-0.09122,0.38894-0.162H73.0509l0.72073,0.71767
			c0.07078,0.07191,0.16334,0.10502,0.25552,0.10502c0.09219,0,0.18442-0.03621,0.25552-0.10715
			c0.14056-0.14169,0.1396-0.36783-0.00099-0.50972l-0.72366-0.71604c0,0,0,0.00097-0.00163,0.00097
			c0.07175-0.11995,0.12564-0.25077,0.16104-0.38974l1.69017-0.00665c0.19675-0.0018,0.36005-0.16217,0.35715-0.36267
			C75.76476,58.63448,75.60372,58.47215,75.40535,58.47411z M72.29766,59.408c-0.31068,0.00097-0.56328-0.24984-0.56391-0.55909
			c-0.00292-0.31134,0.24964-0.56524,0.56198-0.56703c0.30942,0,0.56394,0.24984,0.56394,0.56235
			C72.8626,59.15458,72.61,59.40717,72.29766,59.408z"/>
	</g>
	<g>
		<path class="st0" d="M17.85796,49.72744l-1.68954,0.00439c0,0.0013,0,0.00306,0,0.00306
			c-0.03541-0.13813-0.09026-0.26962-0.1633-0.38894l0.75806-0.76361c0.13993-0.1414,0.13993-0.36879-0.00097-0.50906
			c-0.14189-0.13993-0.36946-0.1388-0.51102,0.00309l-0.75776,0.76262c-0.11948-0.07191-0.25097-0.12709-0.38701-0.16054
			l-0.00745-1.68953c0-0.19921-0.16201-0.36055-0.36264-0.35875c-0.19675,0.00097-0.36105,0.16201-0.35716,0.36168l0.00392,1.68953
			c-0.13833,0.03424-0.26689,0.08943-0.38605,0.16134l-0.72269-0.71634c-0.1406-0.14156-0.36849-0.14076-0.51005,0
			c-0.14056,0.14186-0.14056,0.37042,0,0.51002l0.72369,0.71896c0.00163-0.00176,0.00163-0.00176,0.00163-0.00176
			c-0.07178,0.12012-0.1276,0.2516-0.163,0.3925c0.00259-0.00113,0.00259-0.00193,0.00259-0.00193l-1.69083,0.00469
			c-0.19871,0-0.35942,0.16317-0.35712,0.36331c0,0.19871,0.16104,0.35909,0.36038,0.35825l1.68857-0.00745v-0.0018
			c0.03634,0.1388,0.09123,0.27029,0.16297,0.38977l-0.75776,0.76245c-0.14056,0.14093-0.13993,0.37305,0.00259,0.51201
			c0.06915,0.06978,0.16234,0.10436,0.25552,0.10436c0.09186-0.00209,0.18278-0.03634,0.25386-0.10632l0.75776-0.76378
			c0.11948,0.07178,0.25097,0.12517,0.38897,0.15958l0.00648,1.68924c0,0.20064,0.16297,0.36005,0.36005,0.35909
			c0.2,0,0.36038-0.16104,0.35972-0.36071l-0.00485-1.69133c0.13797-0.03441,0.27045-0.09122,0.38894-0.16201h-0.00096
			l0.72073,0.71767c0.07078,0.07191,0.16334,0.10502,0.25553,0.10502s0.18441-0.03621,0.25553-0.10715
			c0.14056-0.14169,0.1396-0.36783-0.001-0.50972l-0.72366-0.71604c0,0,0,0.00097-0.00163,0.00097
			c0.07174-0.11995,0.12564-0.25077,0.16104-0.38974l1.69017-0.00665c0.19675-0.0018,0.36005-0.16217,0.35716-0.36267
			C18.21738,49.88782,18.05634,49.72548,17.85796,49.72744z M14.75028,50.66134c-0.31068,0.00096-0.56328-0.24984-0.56391-0.55909
			c-0.00293-0.31134,0.24964-0.56524,0.56198-0.56704c0.30942,0,0.56394,0.24984,0.56394,0.56235
			C15.31522,50.40791,15.06262,50.66051,14.75028,50.66134z"/>
	</g>
	<g>
		<path class="st0" d="M11.4638,40.92207l-1.68954,0.00439c0,0.0013,0,0.00306,0,0.00306
			c-0.03541-0.13813-0.09026-0.26962-0.1633-0.38894l0.75806-0.76361c0.13993-0.1414,0.13993-0.36879-0.00096-0.50906
			c-0.14189-0.13993-0.36946-0.1388-0.51102,0.00309l-0.75776,0.76262c-0.11948-0.07191-0.25097-0.12709-0.38701-0.16054
			l-0.00745-1.68953c0-0.19921-0.16201-0.36055-0.36264-0.35875c-0.19675,0.00097-0.36105,0.16201-0.35716,0.36168L7.98895,39.876
			c-0.13833,0.03424-0.26689,0.08943-0.38605,0.16134L6.88021,39.321c-0.14059-0.14156-0.36849-0.14076-0.51005,0
			c-0.14056,0.14186-0.14056,0.37042,0,0.51002l0.72369,0.71896c0.00163-0.00176,0.00163-0.00176,0.00163-0.00176
			c-0.07178,0.12012-0.1276,0.2516-0.163,0.3925c0.00259-0.00113,0.00259-0.00193,0.00259-0.00193l-1.69083,0.00469
			c-0.19871,0-0.35942,0.16317-0.35712,0.36331c0,0.19871,0.16104,0.35909,0.36038,0.35825l1.68857-0.00745v-0.0018
			c0.03634,0.1388,0.09123,0.27029,0.16297,0.38977l-0.75776,0.76245c-0.14056,0.14093-0.13993,0.37305,0.00259,0.51201
			c0.06915,0.06978,0.16234,0.10436,0.25552,0.10436c0.09186-0.00209,0.18278-0.03634,0.25386-0.10632l0.75776-0.76378
			c0.11948,0.07178,0.25097,0.12517,0.38897,0.15958l0.00648,1.68924c0,0.20064,0.16297,0.36005,0.36005,0.35909
			c0.20001,0,0.36038-0.16104,0.35972-0.36071l-0.00485-1.69133c0.13797-0.03441,0.27045-0.09122,0.38894-0.16201H9.10936
			l0.72073,0.71767c0.07078,0.07191,0.16333,0.10502,0.25552,0.10502s0.18441-0.03621,0.25552-0.10715
			c0.14056-0.14169,0.1396-0.36783-0.001-0.50972l-0.72365-0.71604c0,0,0,0.00097-0.00163,0.00097
			c0.07174-0.11995,0.12563-0.25077,0.16104-0.38974l1.69017-0.00665c0.19675-0.0018,0.36005-0.16217,0.35716-0.36267
			C11.82322,41.08245,11.66218,40.92011,11.4638,40.92207z M8.35611,41.85597c-0.31068,0.00096-0.56328-0.24984-0.56391-0.55909
			c-0.00293-0.31134,0.24964-0.56524,0.56198-0.56704c0.30942,0,0.56394,0.24984,0.56394,0.56235
			C8.92105,41.60254,8.66846,41.85514,8.35611,41.85597z"/>
	</g>
	<g>
		<path class="st0" d="M17.85796,32.1167l-1.68954,0.00439c0,0.0013,0,0.00306,0,0.00306
			c-0.03541-0.13814-0.09026-0.26962-0.1633-0.38894l0.75806-0.76361c0.13993-0.14139,0.13993-0.36879-0.00097-0.50906
			c-0.14189-0.13993-0.36946-0.1388-0.51101,0.00309l-0.75776,0.76262c-0.11948-0.07191-0.25097-0.1271-0.38701-0.16054
			l-0.00745-1.68954c0-0.19921-0.16201-0.36055-0.36264-0.35875c-0.19675,0.00096-0.36105,0.162-0.35716,0.36168l0.00392,1.68954
			c-0.13833,0.03424-0.26689,0.08943-0.38605,0.16134l-0.72269-0.71634c-0.1406-0.14156-0.36849-0.14076-0.51005,0
			c-0.14056,0.14186-0.14056,0.37042,0,0.51002l0.72369,0.71897c0.00163-0.00176,0.00163-0.00176,0.00163-0.00176
			c-0.07178,0.12012-0.1276,0.2516-0.163,0.3925c0.00259-0.00113,0.00259-0.00193,0.00259-0.00193l-1.69083,0.00469
			c-0.19871,0-0.35942,0.16317-0.35712,0.36331c0,0.19871,0.16104,0.35909,0.36038,0.35825l1.68857-0.00745v-0.0018
			c0.03634,0.1388,0.09123,0.27029,0.16297,0.38977l-0.75776,0.76245c-0.14056,0.14093-0.13993,0.37305,0.00259,0.51201
			c0.06915,0.06978,0.16234,0.10436,0.25552,0.10436c0.09186-0.00209,0.18278-0.03634,0.25386-0.10632l0.75776-0.76378
			c0.11948,0.07178,0.25097,0.12517,0.38897,0.15958l0.00648,1.68924c0,0.20064,0.16297,0.36005,0.36005,0.35909
			c0.2,0,0.36038-0.16104,0.35972-0.36071l-0.00485-1.69133c0.13797-0.03441,0.27045-0.09122,0.38894-0.16201h-0.00096
			l0.72073,0.71767c0.07078,0.07191,0.16334,0.10502,0.25552,0.10502c0.09219,0,0.18441-0.03621,0.25553-0.10715
			c0.14056-0.14169,0.1396-0.36783-0.001-0.50972l-0.72365-0.71604c0,0,0,0.00097-0.00163,0.00097
			c0.07174-0.11995,0.12564-0.25077,0.16104-0.38974l1.69017-0.00665c0.19675-0.0018,0.36005-0.16217,0.35716-0.36267
			C18.21737,32.27708,18.05633,32.11474,17.85796,32.1167z M14.75027,33.0506c-0.31068,0.00096-0.56328-0.24984-0.56391-0.55909
			c-0.00292-0.31134,0.24964-0.56524,0.56198-0.56704c0.30942,0,0.56394,0.24984,0.56394,0.56235
			C15.31521,32.79717,15.06261,33.04977,14.75027,33.0506z"/>
	</g>
	<g>
		<path class="st0" d="M17.85793,67.10336l-1.68954,0.00439c0,0.0013,0,0.00306,0,0.00306
			c-0.03541-0.13814-0.09026-0.26962-0.1633-0.38894l0.75806-0.76362c0.13993-0.1414,0.13993-0.36879-0.00096-0.50906
			c-0.14189-0.13993-0.36946-0.1388-0.51102,0.00309l-0.75776,0.76262c-0.11948-0.07191-0.25097-0.1271-0.38701-0.16054
			l-0.00745-1.68954c0-0.19921-0.16201-0.36055-0.36264-0.35875c-0.19675,0.00096-0.36105,0.162-0.35716,0.36167l0.00392,1.68954
			c-0.13833,0.03424-0.26689,0.08943-0.38605,0.16134l-0.72269-0.71634c-0.1406-0.14156-0.36849-0.14076-0.51005,0
			c-0.14056,0.14186-0.14056,0.37042,0,0.51002l0.72369,0.71897c0.00163-0.00176,0.00163-0.00176,0.00163-0.00176
			c-0.07178,0.12012-0.1276,0.2516-0.163,0.39249c0.00259-0.00113,0.00259-0.00193,0.00259-0.00193l-1.69083,0.00469
			c-0.19871,0-0.35942,0.16317-0.35712,0.3633c0,0.19871,0.16104,0.35909,0.36038,0.35825l1.68857-0.00745v-0.00179
			c0.03634,0.13879,0.09123,0.27029,0.16297,0.38977l-0.75776,0.76245c-0.14056,0.14092-0.13993,0.37305,0.00259,0.51201
			c0.06915,0.06979,0.16234,0.10436,0.25552,0.10436c0.09186-0.0021,0.18278-0.03634,0.25386-0.10632l0.75776-0.76378
			c0.11948,0.07178,0.25097,0.12517,0.38897,0.15958l0.00648,1.68924c0,0.20063,0.16297,0.36005,0.36005,0.35909
			c0.2,0,0.36038-0.16104,0.35972-0.36072l-0.00485-1.69133c0.13797-0.03441,0.27045-0.09122,0.38894-0.162h-0.00096
			l0.72073,0.71767c0.07078,0.07191,0.16334,0.10503,0.25553,0.10503c0.09219,0,0.18441-0.03621,0.25552-0.10715
			c0.14056-0.14169,0.1396-0.36783-0.001-0.50972l-0.72365-0.71604c0,0,0,0.00097-0.00163,0.00097
			c0.07174-0.11995,0.12564-0.25077,0.16104-0.38974l1.69017-0.00665c0.19675-0.0018,0.36005-0.16218,0.35716-0.36268
			C18.21734,67.26373,18.0563,67.10139,17.85793,67.10336z M14.75024,68.03725c-0.31068,0.00097-0.56328-0.24984-0.56391-0.55908
			c-0.00293-0.31135,0.24964-0.56525,0.56198-0.56704c0.30942,0,0.56394,0.24984,0.56394,0.56235
			C15.31518,67.78383,15.06258,68.03643,14.75024,68.03725z"/>
	</g>
	<g>
		<path class="st0" d="M30.64629,67.10336l-1.68954,0.00439c0,0.0013,0,0.00306,0,0.00306
			c-0.03541-0.13814-0.09026-0.26962-0.1633-0.38894l0.75806-0.76362c0.13993-0.1414,0.13993-0.36879-0.00096-0.50906
			c-0.14189-0.13993-0.36946-0.1388-0.51102,0.00309l-0.75776,0.76262c-0.11948-0.07191-0.25097-0.1271-0.38701-0.16054
			l-0.00745-1.68954c0-0.19921-0.162-0.36055-0.36264-0.35875c-0.19675,0.00096-0.36105,0.162-0.35715,0.36167l0.00392,1.68954
			c-0.13833,0.03424-0.26689,0.08943-0.38605,0.16134l-0.72269-0.71634c-0.14059-0.14156-0.36849-0.14076-0.51005,0
			c-0.14056,0.14186-0.14056,0.37042,0,0.51002l0.72369,0.71897c0.00163-0.00176,0.00163-0.00176,0.00163-0.00176
			c-0.07178,0.12012-0.1276,0.2516-0.163,0.39249c0.00259-0.00113,0.00259-0.00193,0.00259-0.00193l-1.69083,0.00469
			c-0.19871,0-0.35942,0.16317-0.35712,0.3633c0,0.19871,0.16104,0.35909,0.36038,0.35825l1.68857-0.00745v-0.00179
			c0.03634,0.13879,0.09122,0.27029,0.16297,0.38977l-0.75776,0.76245c-0.14056,0.14092-0.13993,0.37305,0.00259,0.51201
			c0.06915,0.06979,0.16234,0.10436,0.25552,0.10436c0.09186-0.0021,0.18278-0.03634,0.25386-0.10632l0.75776-0.76378
			c0.11948,0.07178,0.25097,0.12517,0.38897,0.15958l0.00648,1.68924c0,0.20063,0.16297,0.36005,0.36005,0.35909
			c0.2,0,0.36038-0.16104,0.35972-0.36072l-0.00485-1.69133c0.13797-0.03441,0.27045-0.09122,0.38894-0.162h-0.00096
			l0.72073,0.71767c0.07078,0.07191,0.16334,0.10503,0.25553,0.10503s0.18441-0.03621,0.25552-0.10715
			c0.14056-0.14169,0.1396-0.36783-0.001-0.50972l-0.72365-0.71604c0,0,0,0.00097-0.00163,0.00097
			c0.07174-0.11995,0.12564-0.25077,0.16104-0.38974l1.69017-0.00665c0.19675-0.0018,0.36005-0.16218,0.35716-0.36268
			C31.0057,67.26373,30.84466,67.10139,30.64629,67.10336z M27.5386,68.03725c-0.31068,0.00097-0.56328-0.24984-0.56391-0.55908
			c-0.00293-0.31135,0.24964-0.56525,0.56198-0.56704c0.30942,0,0.56394,0.24984,0.56394,0.56235
			C28.10354,67.78383,27.85094,68.03643,27.5386,68.03725z"/>
	</g>
	<g>
		<path class="st0" d="M43.43461,67.10336l-1.68954,0.00439c0,0.0013,0,0.00306,0,0.00306
			c-0.0354-0.13814-0.09026-0.26962-0.1633-0.38894l0.75806-0.76362c0.13993-0.1414,0.13993-0.36879-0.00097-0.50906
			c-0.14189-0.13993-0.36946-0.1388-0.51102,0.00309L41.0701,66.2149c-0.11948-0.07191-0.25097-0.1271-0.38701-0.16054
			l-0.00745-1.68954c0-0.19921-0.16201-0.36055-0.36264-0.35875c-0.19675,0.00096-0.36105,0.162-0.35716,0.36167l0.00393,1.68954
			c-0.13834,0.03424-0.2669,0.08943-0.38605,0.16134l-0.72269-0.71634c-0.14059-0.14156-0.36849-0.14076-0.51005,0
			c-0.14056,0.14186-0.14056,0.37042,0,0.51002l0.72369,0.71897c0.00163-0.00176,0.00163-0.00176,0.00163-0.00176
			c-0.07178,0.12012-0.12759,0.2516-0.163,0.39249c0.00259-0.00113,0.00259-0.00193,0.00259-0.00193l-1.69083,0.00469
			c-0.19871,0-0.35942,0.16317-0.35712,0.3633c0,0.19871,0.16104,0.35909,0.36038,0.35825l1.68857-0.00745v-0.00179
			c0.03634,0.13879,0.09123,0.27029,0.16297,0.38977l-0.75777,0.76245c-0.14056,0.14092-0.13993,0.37305,0.00259,0.51201
			c0.06915,0.06979,0.16234,0.10436,0.25552,0.10436c0.09186-0.0021,0.18279-0.03634,0.25386-0.10632l0.75776-0.76378
			c0.11948,0.07178,0.25097,0.12517,0.38897,0.15958l0.00648,1.68924c0,0.20063,0.16297,0.36005,0.36005,0.35909
			c0.2,0,0.36038-0.16104,0.35971-0.36072l-0.00485-1.69133c0.13797-0.03441,0.27045-0.09122,0.38894-0.162h-0.00097
			l0.72073,0.71767c0.07078,0.07191,0.16333,0.10503,0.25552,0.10503s0.18441-0.03621,0.25553-0.10715
			c0.14056-0.14169,0.1396-0.36783-0.001-0.50972l-0.72366-0.71604c0,0,0,0.00097-0.00163,0.00097
			c0.07175-0.11995,0.12564-0.25077,0.16104-0.38974l1.69017-0.00665c0.19675-0.0018,0.36005-0.16218,0.35716-0.36268
			C43.79403,67.26373,43.63299,67.10139,43.43461,67.10336z M40.32692,68.03725c-0.31068,0.00097-0.56328-0.24984-0.56391-0.55908
			c-0.00293-0.31135,0.24964-0.56525,0.56198-0.56704c0.30941,0,0.56394,0.24984,0.56394,0.56235
			C40.89186,67.78383,40.63927,68.03643,40.32692,68.03725z"/>
	</g>
	<g>
		<path class="st0" d="M56.22293,67.10336l-1.68953,0.00439c0,0.0013,0,0.00306,0,0.00306
			c-0.03541-0.13814-0.09026-0.26962-0.1633-0.38894l0.75806-0.76362c0.13993-0.1414,0.13993-0.36879-0.00097-0.50906
			c-0.14189-0.13993-0.36946-0.1388-0.51102,0.00309l-0.75776,0.76262c-0.11948-0.07191-0.25097-0.1271-0.38701-0.16054
			l-0.00745-1.68954c0-0.19921-0.162-0.36055-0.36264-0.35875c-0.19675,0.00096-0.36105,0.162-0.35715,0.36167l0.00392,1.68954
			c-0.13834,0.03424-0.2669,0.08943-0.38605,0.16134l-0.72269-0.71634c-0.14059-0.14156-0.36849-0.14076-0.51005,0
			c-0.14056,0.14186-0.14056,0.37042,0,0.51002l0.72369,0.71897c0.00163-0.00176,0.00163-0.00176,0.00163-0.00176
			c-0.07178,0.12012-0.1276,0.2516-0.16301,0.39249c0.00259-0.00113,0.00259-0.00193,0.00259-0.00193l-1.69083,0.00469
			c-0.19871,0-0.35942,0.16317-0.35712,0.3633c0,0.19871,0.16104,0.35909,0.36038,0.35825l1.68857-0.00745v-0.00179
			c0.03633,0.13879,0.09122,0.27029,0.16297,0.38977l-0.75776,0.76245c-0.14056,0.14092-0.13993,0.37305,0.00259,0.51201
			c0.06915,0.06979,0.16233,0.10436,0.25552,0.10436c0.09186-0.0021,0.18278-0.03634,0.25386-0.10632l0.75777-0.76378
			c0.11948,0.07178,0.25097,0.12517,0.38897,0.15958l0.00648,1.68924c0,0.20063,0.16297,0.36005,0.36005,0.35909
			c0.2,0,0.36038-0.16104,0.35972-0.36072l-0.00486-1.69133c0.13797-0.03441,0.27045-0.09122,0.38894-0.162h-0.00096
			l0.72073,0.71767c0.07078,0.07191,0.16334,0.10503,0.25553,0.10503s0.18441-0.03621,0.25552-0.10715
			c0.14056-0.14169,0.1396-0.36783-0.001-0.50972l-0.72365-0.71604c0,0,0,0.00097-0.00163,0.00097
			c0.07174-0.11995,0.12563-0.25077,0.16104-0.38974l1.69017-0.00665c0.19675-0.0018,0.36005-0.16218,0.35715-0.36268
			C56.58235,67.26373,56.42131,67.10139,56.22293,67.10336z M53.11525,68.03725c-0.31068,0.00097-0.56328-0.24984-0.56391-0.55908
			c-0.00293-0.31135,0.24964-0.56525,0.56198-0.56704c0.30942,0,0.56394,0.24984,0.56394,0.56235
			C53.68019,67.78383,53.42759,68.03643,53.11525,68.03725z"/>
	</g>
	<g>
		<path class="st0" d="M69.01122,67.10336l-1.68954,0.00439c0,0.0013,0,0.00306,0,0.00306
			c-0.03541-0.13814-0.09026-0.26962-0.1633-0.38894l0.75806-0.76362c0.13993-0.1414,0.13993-0.36879-0.00097-0.50906
			c-0.14189-0.13993-0.36945-0.1388-0.51102,0.00309l-0.75776,0.76262c-0.11948-0.07191-0.25097-0.1271-0.38701-0.16054
			l-0.00745-1.68954c0-0.19921-0.162-0.36055-0.36264-0.35875c-0.19675,0.00096-0.36105,0.162-0.35715,0.36167l0.00392,1.68954
			c-0.13833,0.03424-0.26689,0.08943-0.38605,0.16134l-0.72269-0.71634c-0.14059-0.14156-0.36849-0.14076-0.51005,0
			c-0.14056,0.14186-0.14056,0.37042,0,0.51002l0.72369,0.71897c0.00163-0.00176,0.00163-0.00176,0.00163-0.00176
			c-0.07178,0.12012-0.12759,0.2516-0.163,0.39249c0.00259-0.00113,0.00259-0.00193,0.00259-0.00193l-1.69083,0.00469
			c-0.19871,0-0.35942,0.16317-0.35712,0.3633c0,0.19871,0.16104,0.35909,0.36038,0.35825l1.68857-0.00745v-0.00179
			c0.03633,0.13879,0.09122,0.27029,0.16296,0.38977l-0.75776,0.76245c-0.14056,0.14092-0.13993,0.37305,0.00259,0.51201
			c0.06915,0.06979,0.16234,0.10436,0.25553,0.10436c0.09186-0.0021,0.18279-0.03634,0.25386-0.10632l0.75777-0.76378
			c0.11948,0.07178,0.25097,0.12517,0.38897,0.15958l0.00648,1.68924c0,0.20063,0.16296,0.36005,0.36005,0.35909
			c0.2,0,0.36038-0.16104,0.35972-0.36072l-0.00485-1.69133c0.13796-0.03441,0.27045-0.09122,0.38894-0.162h-0.00097
			l0.72073,0.71767c0.07079,0.07191,0.16334,0.10503,0.25553,0.10503c0.09219,0,0.18441-0.03621,0.25552-0.10715
			c0.14056-0.14169,0.1396-0.36783-0.001-0.50972l-0.72366-0.71604c0,0,0,0.00097-0.00163,0.00097
			c0.07174-0.11995,0.12563-0.25077,0.16104-0.38974l1.69016-0.00665c0.19675-0.0018,0.36005-0.16218,0.35715-0.36268
			C69.37064,67.26373,69.20959,67.10139,69.01122,67.10336z M65.90353,68.03725c-0.31068,0.00097-0.56328-0.24984-0.56391-0.55908
			c-0.00292-0.31135,0.24964-0.56525,0.56198-0.56704c0.30942,0,0.56394,0.24984,0.56394,0.56235
			C66.46848,67.78383,66.21587,68.03643,65.90353,68.03725z"/>
	</g>
	<circle class="st1" cx="34.53337" cy="19.7937" r="16.45013"/>
	<path class="st2" d="M51.0591,12.68091c0,2.4699-2.00105,4.46608-4.46608,4.46608H29.91287
		c-2.4651,0-4.46608-1.99618-4.46608-4.46608c0-2.16537,1.54184-3.96823,3.58637-4.37425
		c-0.01451-0.13532-0.01935-0.27067-0.01935-0.41083c0-2.39255,1.93821-4.33076,4.33073-4.33076
		c0.68643,0,1.33403,0.15951,1.90924,0.43986c1.17939-1.77873,3.19973-2.94841,5.49077-2.94841
		c3.63959,0,6.5928,2.95322,6.5928,6.5928c0,0.21267-0.00967,0.42051-0.029,0.62834
		C49.43507,8.61601,51.0591,10.45754,51.0591,12.68091z"/>
	<path class="st3" d="M73.38613,35.3874c0,5.11005-4.14001,9.23999-9.23999,9.23999H29.6362
		c-5.1001,0-9.23999-4.12994-9.23999-9.23999c0-4.47998,3.18994-8.20996,7.41992-9.04999
		c-0.03003-0.27997-0.04004-0.56-0.04004-0.84998c0-4.95001,4.01001-8.96002,8.95996-8.96002
		c1.42017,0,2.76001,0.33002,3.95007,0.91003c2.44006-3.68005,6.62-6.10004,11.35999-6.10004
		c7.53003,0,13.64001,6.10998,13.64001,13.64001c0,0.44-0.02002,0.87-0.06,1.29999
		C70.02615,26.97743,73.38613,30.78743,73.38613,35.3874z"/>
	<path class="st2" d="M30.21653,25.3363c0,2.79479-2.26426,5.05355-5.05355,5.05355H6.28875
		c-2.78935,0-5.05355-2.25875-5.05355-5.05355c0-2.4502,1.74465-4.49021,4.05812-4.94963
		c-0.01642-0.15312-0.0219-0.30627-0.0219-0.46487c0-2.70727,2.19316-4.90043,4.9004-4.90043
		c0.77672,0,1.50951,0.18049,2.16038,0.49772c1.33452-2.0127,3.62062-3.33624,6.21302-3.33624
		c4.11834,0,7.46002,3.34168,7.46002,7.46002c0,0.24065-0.01095,0.47582-0.03281,0.71099
		C28.37889,20.73671,30.21653,22.82047,30.21653,25.3363z"/>
	<g>
		<path class="st0" d="M24.25208,40.86337l-1.68954,0.00439c0,0.0013,0,0.00306,0,0.00306
			c-0.03541-0.13813-0.09026-0.26962-0.1633-0.38894l0.75806-0.76362c0.13993-0.14139,0.13993-0.36879-0.00097-0.50905
			c-0.14189-0.13993-0.36946-0.1388-0.51101,0.00309l-0.75776,0.76262c-0.11948-0.07191-0.25097-0.1271-0.38701-0.16054
			l-0.00745-1.68954c0-0.19921-0.16201-0.36055-0.36264-0.35875c-0.19675,0.00097-0.36105,0.16201-0.35716,0.36168l0.00392,1.68954
			c-0.13833,0.03424-0.2669,0.08943-0.38605,0.16134L19.6685,39.2623c-0.1406-0.14156-0.36849-0.14076-0.51005,0
			c-0.14056,0.14186-0.14056,0.37042,0,0.51002l0.72369,0.71897c0.00163-0.00176,0.00163-0.00176,0.00163-0.00176
			c-0.07178,0.12012-0.1276,0.2516-0.163,0.39249c0.00259-0.00113,0.00259-0.00193,0.00259-0.00193l-1.69083,0.00469
			c-0.19871,0-0.35942,0.16317-0.35712,0.3633c0,0.19871,0.16104,0.35909,0.36038,0.35825l1.68857-0.00745V41.5971
			c0.03634,0.1388,0.09123,0.27028,0.16297,0.38977l-0.75776,0.76245c-0.14056,0.14093-0.13993,0.37305,0.00259,0.51201
			c0.06915,0.06978,0.16234,0.10436,0.25553,0.10436c0.09186-0.00209,0.18278-0.03634,0.25386-0.10632l0.75776-0.76378
			c0.11949,0.07178,0.25097,0.12517,0.38897,0.15958l0.00648,1.68924c0,0.20063,0.16297,0.36005,0.36005,0.35908
			c0.2,0,0.36038-0.16104,0.35972-0.36071l-0.00485-1.69133c0.13797-0.03441,0.27045-0.09122,0.38894-0.162h-0.00097
			l0.72073,0.71767c0.07078,0.07191,0.16333,0.10502,0.25552,0.10502s0.18441-0.03621,0.25553-0.10715
			c0.14056-0.14169,0.1396-0.36783-0.001-0.50972l-0.72365-0.71604c0,0,0,0.00097-0.00163,0.00097
			c0.07174-0.11995,0.12563-0.25077,0.16104-0.38974l1.69017-0.00665c0.19675-0.0018,0.36005-0.16217,0.35715-0.36267
			C24.6115,41.02374,24.45046,40.8614,24.25208,40.86337z M21.14439,41.79726c-0.31068,0.00097-0.56328-0.24984-0.56391-0.55909
			c-0.00293-0.31134,0.24964-0.56524,0.56198-0.56703c0.30942,0,0.56394,0.24984,0.56394,0.56235
			C21.70934,41.54383,21.45674,41.79643,21.14439,41.79726z"/>
	</g>
</g>
</svg>
