<?xml version="1.0" encoding="utf-8"?>
<!-- Generator: Adobe Illustrator 22.1.0, SVG Export Plug-In . SVG Version: 6.00 Build 0)  -->
<svg version="1.1" id="Layer_2" xmlns="http://www.w3.org/2000/svg" xmlns:xlink="http://www.w3.org/1999/xlink" x="0px" y="0px"
	 viewBox="0 0 55 62" style="enable-background:new 0 0 55 62;" xml:space="preserve">
<style type="text/css">
	.st0{fill:#FDB813;}
	.st1{fill:#E8ECF7;}
	.st2{fill:#BDEFFF;}
</style>
<g>
	<circle class="st0" cx="28.1422" cy="17.83789" r="16.45013"/>
	<path class="st1" d="M53.99496,33.4316c0,5.11005-4.14001,9.23999-9.23999,9.23999H10.24503
		c-5.1001,0-9.23999-4.12994-9.23999-9.23999c0-4.47998,3.18994-8.20996,7.41992-9.04999
		c-0.03003-0.27997-0.04004-0.56-0.04004-0.84998c0-4.95001,4.01001-8.96002,8.95996-8.96002
		c1.42017,0,2.76001,0.33002,3.95007,0.91003c2.44006-3.68005,6.62-6.10004,11.35999-6.10004
		c7.53003,0,13.64001,6.10999,13.64001,13.64002c0,0.44-0.02002,0.87-0.06,1.29999
		C50.63498,25.02163,53.99496,28.83162,53.99496,33.4316z"/>
	<g>
		
			<rect x="18.9711" y="46.21643" transform="matrix(0.70711 -0.70711 0.70711 0.70711 -28.09269 29.29102)" class="st2" width="4.6799" height="4.6799"/>
		
			<rect x="25.36526" y="54.9631" transform="matrix(0.70711 -0.70711 0.70711 0.70711 -32.40471 36.37422)" class="st2" width="4.6799" height="4.6799"/>
		
			<rect x="31.75946" y="46.21643" transform="matrix(0.70711 -0.70711 0.70711 0.70711 -24.34706 38.33376)" class="st2" width="4.6799" height="4.6799"/>
	</g>
</g>
</svg>
