<?xml version="1.0" encoding="utf-8"?>
<!-- Generator: Adobe Illustrator 22.1.0, SVG Export Plug-In . SVG Version: 6.00 Build 0)  -->
<svg version="1.1" id="Layer_2" xmlns="http://www.w3.org/2000/svg" xmlns:xlink="http://www.w3.org/1999/xlink" x="0px" y="0px"
	 viewBox="0 0 55 62" style="enable-background:new 0 0 55 62;" xml:space="preserve">
<style type="text/css">
	.st0{fill:#FFC655;}
	.st1{fill:#272A33;}
	.st2{fill:#ABAFB7;}
	.st3{fill:#BDEFFF;}
</style>
<g>
	<g>
		<path class="st0" d="M43.46221,23.82782c-2.39001,6.13-8.34998,10.46002-15.32007,10.46002
			c-9.08997,0-16.44995-7.36005-16.44995-16.45001c0-6.02002,3.22998-11.28998,8.06006-14.15002
			c-0.72998,1.86005-1.13013,3.88-1.13013,5.98999c0,9.08002,7.37012,16.45001,16.45007,16.45001
			C38.13213,26.12781,41.01226,25.28784,43.46221,23.82782z"/>
		<path class="st1" d="M44.59221,17.83783c0,2.10999-0.40002,4.13-1.13,5.98999c-2.44995,1.46002-5.33008,2.29999-8.39001,2.29999
			c-9.07995,0-16.45007-7.37-16.45007-16.45001c0-2.10999,0.40015-4.12994,1.13013-5.98999
			c2.44995-1.45996,5.31995-2.29999,8.38989-2.29999C37.23223,1.38782,44.59221,8.75782,44.59221,17.83783z"/>
	</g>
	<path class="st2" d="M53.99496,33.43154c0,5.11005-4.14001,9.23999-9.23999,9.23999H10.24503
		c-5.1001,0-9.23999-4.12994-9.23999-9.23999c0-4.47998,3.18994-8.20996,7.41992-9.04999
		c-0.03003-0.27997-0.04004-0.56-0.04004-0.84998c0-4.95001,4.01001-8.96002,8.95996-8.96002
		c1.42017,0,2.76001,0.33002,3.95007,0.91003c2.44006-3.68005,6.62-6.10004,11.35999-6.10004
		c7.53003,0,13.64001,6.10999,13.64001,13.64001c0,0.44-0.02002,0.87-0.06,1.29999
		C50.63498,25.02157,53.99496,28.83156,53.99496,33.43154z"/>
	<g>
		
			<rect x="18.9711" y="46.21638" transform="matrix(0.70711 -0.70711 0.70711 0.70711 -28.09265 29.29101)" class="st3" width="4.6799" height="4.6799"/>
		
			<rect x="25.36526" y="54.96304" transform="matrix(0.70711 -0.70711 0.70711 0.70711 -32.40466 36.3742)" class="st3" width="4.6799" height="4.6799"/>
		
			<rect x="31.75946" y="46.21638" transform="matrix(0.70711 -0.70711 0.70711 0.70711 -24.34702 38.33374)" class="st3" width="4.6799" height="4.6799"/>
	</g>
</g>
</svg>
